<svg width="735" height="482" viewBox="0 0 735 482" fill="none" xmlns="http://www.w3.org/2000/svg">
<path d="M32.4523 443.995C35.5528 445.085 38.8818 445.358 42.1185 444.788C45.3553 444.217 48.3906 442.823 50.9321 440.74C57.4047 435.307 59.4344 426.359 61.0852 418.071L65.9691 393.558L55.7442 400.599C48.3905 405.662 40.8717 410.888 35.7806 418.221C30.6894 425.555 28.4683 435.567 32.5577 443.502" fill="#E6E6E6"/>
<path d="M34.0311 475.379C32.7441 466.003 31.42 456.505 32.3249 447.029C33.1268 438.612 35.6946 430.393 40.9223 423.651C43.6971 420.08 47.0735 417.021 50.8998 414.61C51.8973 413.98 52.8156 415.561 51.8224 416.188C45.2017 420.372 40.0807 426.55 37.1979 433.833C34.014 441.93 33.5028 450.758 34.0512 459.36C34.3827 464.562 35.0871 469.73 35.7945 474.892C35.8504 475.126 35.8155 475.372 35.697 475.58C35.5784 475.789 35.3851 475.945 35.156 476.016C34.9222 476.079 34.6731 476.048 34.4626 475.928C34.2522 475.809 34.0973 475.611 34.0317 475.378L34.0311 475.379Z" fill="#F2F2F2"/>
<path d="M43.2944 460.334C44.624 462.356 46.4518 464.001 48.6017 465.111C50.7517 466.221 53.1512 466.758 55.5692 466.671C61.7847 466.377 66.9642 462.04 71.6263 457.922L85.419 445.744L76.2909 445.307C69.7263 444.993 62.9924 444.698 56.7398 446.725C50.4872 448.752 44.7209 453.621 43.5778 460.093" fill="#E6E6E6"/>
<path d="M30.3932 480.769C36.5892 469.806 43.7753 457.622 56.6168 453.727C60.187 452.648 63.9307 452.262 67.6461 452.589C68.8173 452.69 68.5248 454.495 67.356 454.394C61.1279 453.877 54.9119 455.522 49.7543 459.051C44.7911 462.429 40.9265 467.126 37.6561 472.106C35.6526 475.157 33.858 478.338 32.0635 481.514C31.4901 482.529 29.8131 481.796 30.3932 480.769Z" fill="#F2F2F2"/>
<path d="M462.815 249.323H190.944V480.889H462.815V249.323Z" fill="white"/>
<path d="M463.605 481.68H190.154V248.533H463.605V481.68ZM191.734 480.099H462.024V250.114H191.734V480.099Z" fill="#3F3D56"/>
<path d="M360.863 294.372H292.895V480.889H360.863V294.372Z" fill="#57B793"/>
<path d="M360.863 294.372H292.895V480.889H360.863V294.372Z" fill="#009C88"/>
<path opacity="0.2" d="M191.734 266.315V303.886L462.814 321.243L462.015 274.884L191.734 266.315Z" fill="black"/>
<path d="M478.621 227.984H175.137V294.372H478.621V227.984Z" fill="white"/>
<path d="M479.411 295.162H174.347V227.194H479.411V295.162ZM175.928 293.582H477.831V228.775H175.928V293.582Z" fill="#3F3D56"/>
<path d="M360.863 221.662H292.895V293.582H360.863V221.662Z" fill="#009C88"/>
<path d="M319.602 158.954C337.544 185.55 320.639 228.326 320.639 228.326C320.639 228.326 274.646 227.981 256.705 201.385C238.763 174.789 255.668 132.014 255.668 132.014C255.668 132.014 301.661 132.358 319.602 158.954Z" fill="#009C88"/>
<path d="M327.834 158.954C309.892 185.55 326.797 228.326 326.797 228.326C326.797 228.326 372.79 227.981 390.731 201.385C408.672 174.789 391.768 132.014 391.768 132.014C391.768 132.014 345.775 132.358 327.834 158.954Z" fill="#009C88"/>
<path d="M279.46 178.984C283.388 178.984 286.573 175.8 286.573 171.871C286.573 167.943 283.388 164.758 279.46 164.758C275.532 164.758 272.347 167.943 272.347 171.871C272.347 175.8 275.532 178.984 279.46 178.984Z" fill="#4DE6B8"/>
<path d="M322.137 250.904C326.066 250.904 329.25 247.719 329.25 243.791C329.25 239.863 326.066 236.678 322.137 236.678C318.209 236.678 315.024 239.863 315.024 243.791C315.024 247.719 318.209 250.904 322.137 250.904Z" fill="#4DE6B8"/>
<path d="M322.137 406.598C326.066 406.598 329.25 403.414 329.25 399.486C329.25 395.557 326.066 392.373 322.137 392.373C318.209 392.373 315.024 395.557 315.024 399.486C315.024 403.414 318.209 406.598 322.137 406.598Z" fill="#4DE6B8"/>
<path d="M298.428 202.694C301.047 202.694 303.17 200.571 303.17 197.952C303.17 195.333 301.047 193.21 298.428 193.21C295.809 193.21 293.686 195.333 293.686 197.952C293.686 200.571 295.809 202.694 298.428 202.694Z" fill="#4DE6B8"/>
<path d="M369.557 162.387C372.176 162.387 374.299 160.264 374.299 157.645C374.299 155.026 372.176 152.903 369.557 152.903C366.938 152.903 364.815 155.026 364.815 157.645C364.815 160.264 366.938 162.387 369.557 162.387Z" fill="#4DE6B8"/>
<path d="M338.734 273.823C341.353 273.823 343.476 271.7 343.476 269.081C343.476 266.462 341.353 264.339 338.734 264.339C336.115 264.339 333.992 266.462 333.992 269.081C333.992 271.7 336.115 273.823 338.734 273.823Z" fill="#4DE6B8"/>
<path d="M310.283 335.469C312.901 335.469 315.024 333.346 315.024 330.727C315.024 328.108 312.901 325.985 310.283 325.985C307.664 325.985 305.541 328.108 305.541 330.727C305.541 333.346 307.664 335.469 310.283 335.469Z" fill="#4DE6B8"/>
<path d="M334.783 356.808C337.401 356.808 339.525 354.685 339.525 352.066C339.525 349.447 337.401 347.324 334.783 347.324C332.164 347.324 330.041 349.447 330.041 352.066C330.041 354.685 332.164 356.808 334.783 356.808Z" fill="#4DE6B8"/>
<path d="M329.25 446.115C331.869 446.115 333.992 443.992 333.992 441.373C333.992 438.754 331.869 436.631 329.25 436.631C326.631 436.631 324.508 438.754 324.508 441.373C324.508 443.992 326.631 446.115 329.25 446.115Z" fill="#4DE6B8"/>
<path d="M621.696 472.159L613.024 472.158L608.898 438.707L621.698 438.708L621.696 472.159Z" fill="#FFB7B7"/>
<path d="M623.908 480.566L595.944 480.565V480.211C595.944 477.324 597.091 474.556 599.132 472.515C601.173 470.474 603.942 469.327 606.828 469.327H606.829L623.908 469.328L623.908 480.566Z" fill="#2F2E41"/>
<path d="M642.878 472.159L651.551 472.158L655.676 438.707L642.876 438.708L642.878 472.159Z" fill="#FFB7B7"/>
<path d="M640.666 469.328L657.745 469.327H657.746C660.632 469.327 663.401 470.474 665.442 472.515C667.483 474.556 668.63 477.324 668.63 480.211V480.565L640.666 480.566L640.666 469.328Z" fill="#2F2E41"/>
<path d="M619.769 210.747C623.493 203.25 620.435 194.152 612.938 190.427C605.441 186.702 596.344 189.76 592.619 197.258C588.894 204.755 591.952 213.852 599.449 217.577C606.946 221.302 616.044 218.244 619.769 210.747Z" fill="#FFB7B7"/>
<path d="M595.032 308.281C595.032 308.281 590.245 328.226 592.639 337.799C595.032 347.373 602.212 412.793 602.212 412.793L606.999 464.65L626.146 466.245L623.753 405.613L626.146 352.958L639.708 404.017V464.83L660.015 465.628L660.451 386.465C660.451 386.465 662.047 324.237 651.675 316.259C641.304 308.281 639.708 306.685 639.708 306.685L595.032 308.281Z" fill="#7E94C1"/>
<path d="M623.937 220.523L642.102 230.097L644.495 313.068C644.495 313.068 634.124 306.685 618.168 314.663C602.212 322.641 591.841 317.057 591.841 317.057L601.414 281.156L597.425 233.288L603.131 228.109L623.937 220.523Z" fill="#57B793"/>
<path d="M603.133 226.599L599.819 229.299C599.819 229.299 579.076 239.67 578.278 246.85L592.639 285.942C592.639 285.942 596.628 294.718 593.436 297.909C590.245 301.101 587.054 309.079 587.852 313.068C588.65 317.057 583.065 333.81 589.447 333.81C595.83 333.81 610.988 295.516 610.19 280.358C609.392 265.2 608.84 225.495 603.133 226.599Z" fill="#009C88"/>
<path d="M617.078 221.422L624.385 220.206C624.385 220.206 651.51 227.386 655.499 239.353L644.33 267.276C644.33 267.276 652.308 318.335 649.915 318.335H647.521C647.521 318.335 653.904 323.122 649.915 324.718C645.926 326.313 636.352 339.078 633.959 333.494C631.565 327.909 617.205 261.692 618.801 247.331C620.396 232.971 615.661 222.926 617.078 221.422Z" fill="#009C88"/>
<path d="M620.249 189.16L620.959 187.731L617.387 185.956C617.387 185.956 613.446 179.544 606.315 181.346C599.184 183.148 595.975 184.226 595.975 184.226L592.412 186.019L594.2 187.799L590.992 188.877L593.135 189.942L590.642 191.376L591.984 198.724C591.984 198.724 594.214 193.151 598.501 195.28C602.788 197.41 610.629 194.179 610.629 194.179L617.441 207.363C617.441 207.363 618.846 202.742 621.352 203.974C621.352 203.974 627.753 193.779 620.249 189.16Z" fill="#2F2E41"/>
<path d="M642.439 329.153C642.045 328.191 641.867 327.154 641.917 326.115C641.967 325.076 642.244 324.061 642.729 323.141C643.213 322.221 643.894 321.419 644.723 320.79C645.551 320.162 646.507 319.722 647.524 319.503L650.595 294.412L660.601 302.922L656.151 325.445C656.406 327.177 656.016 328.942 655.056 330.407C654.096 331.871 652.633 332.932 650.942 333.389C649.252 333.846 647.453 333.668 645.886 332.887C644.319 332.106 643.093 330.778 642.439 329.153Z" fill="#FFB7B7"/>
<path d="M599.641 327.427C599.93 326.428 599.998 325.378 599.838 324.35C599.678 323.323 599.295 322.343 598.715 321.479C598.136 320.616 597.374 319.89 596.484 319.353C595.593 318.816 594.596 318.48 593.562 318.37L587.848 293.746L578.8 303.269L585.613 325.193C585.544 326.942 586.118 328.657 587.228 330.011C588.338 331.365 589.906 332.265 591.635 332.541C593.364 332.816 595.134 332.447 596.609 331.505C598.085 330.562 599.163 329.111 599.641 327.427H599.641Z" fill="#FFB7B7"/>
<path d="M642.825 232.852C642.825 232.852 653.196 228.862 656.388 240.83C659.579 252.797 663.568 276.731 663.568 276.731C663.766 290.039 663.059 290.039 663.568 303.058L661.174 315.025L647.612 313.429L648.203 282.965L641.229 251.999L642.825 232.852Z" fill="#009C88"/>
<path d="M585.458 242.063L580.541 242.589C580.541 242.589 575.885 246.052 575.885 254.03C575.885 262.008 575.087 285.942 575.087 285.942C575.087 285.942 574.635 286.502 578.278 306.685C580.054 316.523 583.123 321.165 583.123 321.165L593.027 311.969L591.841 288.336L595.032 275.571L585.458 242.063Z" fill="#009C88"/>
<path d="M734.21 481.68H0.790323C0.580716 481.68 0.379694 481.596 0.23148 481.448C0.0832653 481.3 0 481.099 0 480.889C0 480.68 0.0832653 480.479 0.23148 480.33C0.379694 480.182 0.580716 480.099 0.790323 480.099H734.21C734.419 480.099 734.62 480.182 734.769 480.33C734.917 480.479 735 480.68 735 480.889C735 481.099 734.917 481.3 734.769 481.448C734.62 481.596 734.419 481.68 734.21 481.68Z" fill="#3F3D56"/>
<path d="M182.287 246.766C191.902 246.766 199.696 238.972 199.696 229.357C199.696 219.742 191.902 211.948 182.287 211.948C172.672 211.948 164.878 219.742 164.878 229.357C164.878 238.972 172.672 246.766 182.287 246.766Z" fill="#FFB8B8"/>
<path d="M176.001 332.37C175.782 332.37 175.562 332.36 175.341 332.341C174.246 332.25 173.182 331.928 172.221 331.397C171.259 330.866 170.42 330.138 169.759 329.26C169.098 328.382 168.63 327.375 168.386 326.304C168.142 325.232 168.126 324.122 168.341 323.044C168.392 322.794 168.456 322.546 168.533 322.303L142.838 291.914C142.001 290.916 141.508 289.675 141.432 288.374C141.356 287.074 141.701 285.784 142.417 284.695L142.463 284.638L165.591 261.833C166.854 260.588 168.56 259.896 170.333 259.908C172.106 259.921 173.801 260.637 175.046 261.9C176.291 263.162 176.983 264.868 176.971 266.641C176.958 268.414 176.242 270.109 174.979 271.354C174.95 271.383 174.921 271.411 174.891 271.439L158.141 287.364L176.479 316.796C176.826 316.815 177.172 316.857 177.513 316.924C179.41 317.302 181.098 318.372 182.251 319.926C183.403 321.48 183.937 323.406 183.748 325.331C183.56 327.256 182.663 329.043 181.231 330.343C179.8 331.644 177.936 332.366 176.001 332.37H176.001Z" fill="#FFB8B8"/>
<path d="M142.838 291.914L168.533 322.303L176.479 316.796L158.141 287.364L174.891 271.439C174.921 271.411 174.95 271.383 174.979 271.354C176.242 270.109 176.958 268.414 176.971 266.641C176.983 264.868 176.291 263.162 175.046 261.9C173.801 260.637 172.106 259.921 170.333 259.908C168.56 259.896 166.854 260.588 165.591 261.833L142.463 284.638L142.417 284.695C141.701 285.784 141.356 287.074 141.432 288.374C141.508 289.675 142.001 290.916 142.838 291.914Z" fill="#4EA886"/>
<path d="M210.959 471.649H219.65L223.783 438.131L210.958 438.132L210.959 471.649Z" fill="#FFB8B8"/>
<path d="M208.743 468.812L225.856 468.811H225.857C228.749 468.811 231.523 469.96 233.569 472.005C235.614 474.05 236.763 476.824 236.763 479.717V480.072L208.743 480.073L208.743 468.812Z" fill="#2F2E41"/>
<path d="M124.587 459.635L132.054 464.08L152.754 437.396L141.735 430.834L124.587 459.635Z" fill="#FFB8B8"/>
<path d="M124.134 456.062L138.839 464.817L138.839 464.818C141.324 466.298 143.12 468.704 143.831 471.508C144.542 474.311 144.11 477.283 142.63 479.768L142.63 479.768L142.449 480.073L118.374 465.738L124.134 456.062Z" fill="#2F2E41"/>
<path d="M221.7 459.81H211.969C211.181 459.812 210.421 459.521 209.835 458.994C209.249 458.467 208.879 457.741 208.798 456.958L198.988 364.744C198.963 364.512 198.862 364.294 198.702 364.125C198.541 363.955 198.329 363.843 198.099 363.806C197.868 363.769 197.632 363.809 197.426 363.92C197.221 364.03 197.057 364.206 196.961 364.418L179.264 403.606L147.932 454.697C147.526 455.352 146.898 455.839 146.163 456.069C145.428 456.299 144.634 456.256 143.928 455.948L131.411 450.441C130.997 450.259 130.627 449.991 130.324 449.655C130.022 449.319 129.794 448.922 129.657 448.491C129.52 448.06 129.475 447.605 129.527 447.156C129.579 446.707 129.726 446.274 129.957 445.885L158.76 397.657L167.594 357.022C164.816 339.4 176.726 313.201 176.847 312.938L176.906 312.81L209.714 299.987L209.878 300.188C222.817 342.648 230.701 388.341 224.879 456.888C224.807 457.683 224.442 458.423 223.854 458.963C223.266 459.504 222.498 459.806 221.7 459.81Z" fill="#7E94C1"/>
<path d="M175.431 316.782L175.584 317.104L162.44 364C175.793 366.333 212.5 371.7 228.5 362.5C229.838 353.137 212.714 279.193 208.254 268.038C206.055 262.578 201.968 258.09 196.738 255.392C191.507 252.693 185.482 251.963 179.758 253.335C176.461 254.147 173.369 255.635 170.678 257.705C167.986 259.775 165.753 262.381 164.122 265.359C162.511 268.306 161.529 271.556 161.24 274.902C160.95 278.248 161.359 281.618 162.44 284.798C168.063 301.243 175.358 316.629 175.431 316.782Z" fill="#57B793"/>
<path d="M175.751 205.5V230C175.751 230 192 225.5 191.5 223C191 220.5 191.373 215.856 192 214.5C192 211.304 180 204 175.751 205.5Z" fill="#3F3737"/>
<path d="M247.677 228.53C247.782 228.723 247.879 228.921 247.968 229.124C248.413 230.129 248.64 231.216 248.635 232.315C248.631 233.414 248.394 234.499 247.94 235.5C247.487 236.5 246.827 237.394 246.004 238.122C245.181 238.85 244.214 239.396 243.165 239.724C242.921 239.799 242.673 239.862 242.423 239.912L228.073 277.03C227.599 278.243 226.746 279.271 225.641 279.961C224.536 280.651 223.238 280.967 221.94 280.861L221.868 280.847L190.766 271.484C189.07 270.972 187.647 269.807 186.809 268.245C185.971 266.684 185.788 264.853 186.299 263.157C186.81 261.46 187.973 260.036 189.534 259.196C191.095 258.357 192.925 258.172 194.622 258.681C194.661 258.693 194.699 258.705 194.738 258.717L216.744 265.782L233.781 235.578C233.63 235.265 233.502 234.941 233.397 234.609C232.82 232.763 232.949 230.769 233.76 229.013C234.571 227.257 236.006 225.865 237.785 225.107C239.565 224.349 241.563 224.28 243.391 224.913C245.219 225.545 246.746 226.835 247.677 228.53L247.677 228.53Z" fill="#FFB8B8"/>
<path d="M228.073 277.03L242.423 239.912L233.781 235.578L216.744 265.782L194.738 258.717C194.699 258.705 194.661 258.693 194.622 258.681C192.925 258.172 191.095 258.357 189.534 259.196C187.973 260.036 186.81 261.46 186.299 263.157C185.788 264.854 185.971 266.684 186.809 268.245C187.647 269.807 189.07 270.972 190.766 271.484L221.868 280.847L221.94 280.861C223.238 280.967 224.536 280.651 225.641 279.961C226.746 279.271 227.599 278.243 228.073 277.03Z" fill="#61C59F"/>
<path d="M524.157 134.252C512.53 118.692 491.251 114.937 480.676 122.839C470.102 130.741 467.673 152.212 479.3 167.771C490.062 182.174 509.559 186.101 520.299 180.706C520.264 180.874 520.262 181.048 520.292 181.217L520.898 184.21C520.944 184.438 521.048 184.651 521.199 184.828C521.351 185.005 521.545 185.14 521.763 185.221C521.981 185.301 522.217 185.325 522.447 185.289C522.677 185.253 522.894 185.159 523.077 185.016L528.205 181.01C528.388 180.867 528.532 180.679 528.622 180.464C528.713 180.25 528.747 180.016 528.721 179.784C528.696 179.553 528.612 179.332 528.477 179.142C528.342 178.953 528.161 178.8 527.951 178.7L525.193 177.389C525.095 177.345 524.994 177.313 524.889 177.293C533.167 168.542 534.942 148.685 524.157 134.252Z" fill="#CCCCCC"/>
<path d="M498.725 128.377C504.412 129.281 509.536 132.333 513.038 136.905C516.54 141.476 518.153 147.218 517.544 152.944C517.419 154.256 519.469 154.247 519.593 152.944C520.179 146.772 518.41 140.606 514.641 135.684C510.872 130.761 505.381 127.446 499.269 126.402C497.98 126.183 497.426 128.156 498.725 128.377Z" fill="white"/>
<path d="M136.092 153.767C146.257 137.216 141.887 116.054 130.638 109.145C119.39 102.237 98.5396 107.91 88.3747 124.461C78.9659 139.782 82.5172 159.352 91.4979 167.339C91.3286 167.369 91.1665 167.431 91.0205 167.522L88.4624 169.19C88.2674 169.317 88.1081 169.492 87.9997 169.698C87.8913 169.904 87.8374 170.135 87.8431 170.367C87.8487 170.6 87.9138 170.828 88.0321 171.028C88.1503 171.229 88.3179 171.396 88.5188 171.513L94.1349 174.798C94.3358 174.916 94.5635 174.98 94.7962 174.985C95.029 174.99 95.2592 174.935 95.4648 174.826C95.6705 174.717 95.8448 174.557 95.9713 174.362C96.0978 174.166 96.1722 173.942 96.1875 173.709L96.3878 170.662C96.3924 170.555 96.3845 170.449 96.3642 170.345C107.554 174.805 126.662 169.12 136.092 153.767Z" fill="#CCCCCC"/>
<path d="M132.158 127.963C133.419 133.582 132.474 139.471 129.52 144.414C126.565 149.357 121.825 152.976 116.279 154.526C115.014 154.894 115.778 156.796 117.035 156.43C122.988 154.695 128.064 150.774 131.246 145.453C134.429 140.132 135.482 133.805 134.195 127.74C133.922 126.46 131.883 126.674 132.158 127.963Z" fill="white"/>
<path d="M644.322 33.9264C643.472 14.5215 627.999 -0.561614 614.811 0.0160528C601.623 0.593719 587.528 16.972 588.378 36.3769C589.165 54.3386 603.069 68.5615 614.982 70.1479C614.859 70.2676 614.759 70.4098 614.689 70.5669L613.504 73.3817C613.414 73.5963 613.38 73.8304 613.406 74.0618C613.431 74.2932 613.516 74.5142 613.651 74.7038C613.786 74.8935 613.967 75.0454 614.177 75.1453C614.387 75.2452 614.62 75.2896 614.852 75.2745L621.345 74.8503C621.577 74.8352 621.802 74.7609 621.997 74.6345C622.193 74.5081 622.353 74.3339 622.462 74.1283C622.571 73.9227 622.626 73.6926 622.621 73.4598C622.617 73.227 622.552 72.9993 622.435 72.7983L620.894 70.1616C620.838 70.0709 620.772 69.9871 620.697 69.9119C632.465 67.3391 645.111 51.9271 644.322 33.9264Z" fill="#57B793"/>
<path d="M626.61 14.754C630.802 18.7025 633.318 24.1096 633.639 29.8594C633.96 35.6092 632.061 41.2627 628.334 45.6529C627.492 46.6666 629.191 47.8134 630.027 46.8062C633.986 42.035 635.995 35.9434 635.651 29.753C635.307 23.5626 632.636 17.731 628.172 13.4279C627.23 12.5207 625.661 13.8401 626.61 14.754Z" fill="white"/>
<path d="M523.016 89.9465C517.932 89.6263 512.997 88.1059 508.615 85.5101C504.233 82.9142 500.528 79.3168 497.804 75.0127C497.041 73.7925 496.045 72.4516 496.573 70.9497C496.757 70.3739 497.131 69.8775 497.634 69.5417C498.137 69.2059 498.738 69.0506 499.341 69.1012C500.899 69.2908 501.904 70.8148 502.096 72.275C502.314 73.9314 501.145 75.2318 499.702 75.8473C496.177 77.3512 492.62 75.027 489.748 73.1721C483.204 68.9456 476.007 65.1233 468.078 64.6416C460.741 64.196 452.874 67.0726 448.794 73.4346C448.08 74.5476 449.852 75.5761 450.563 74.4686C454.61 68.159 462.791 65.8929 469.904 66.8682C474.143 67.5371 478.236 68.9268 482.006 70.9771C483.962 71.9917 485.858 73.1165 487.716 74.2989C489.484 75.5326 491.358 76.6069 493.316 77.5091C496.581 78.8505 500.904 78.7457 503.184 75.6575C505.312 72.7763 503.668 67.9798 500.109 67.1698C499.328 67.0159 498.521 67.0581 497.761 67.2927C497.001 67.5273 496.31 67.9469 495.752 68.5139C495.194 69.0809 494.785 69.7776 494.562 70.5416C494.339 71.3055 494.309 72.1127 494.475 72.891C494.831 74.5876 496.108 76.2479 497.097 77.6347C500.068 81.8144 503.939 85.2744 508.425 87.7597C512.91 90.2451 517.897 91.6924 523.016 91.9952C524.334 92.0604 524.33 90.0115 523.016 89.9465H523.016Z" fill="#CCCCCC"/>
<path d="M159.5 239C156 229 157.695 205.347 174.221 205.347C191.315 205.347 193.5 229.814 193.5 241.5L192.5 248.5L191.5 252L209.5 358.5L192.5 360.5C181.5 313.5 185.5 256.5 185.5 256.5C185.5 256.5 183.011 257.291 181.5 257.5C180.027 257.703 178.5 257 178.5 257C178.5 257 172.738 305.5 174 332C175.262 358.5 177 360.5 177 360.5L155.5 358.5L171.5 254C171.5 254 163 249 159.5 239Z" fill="#3F3737"/>
</svg>
