<svg width="89" height="95" viewBox="0 0 89 95" fill="none" xmlns="http://www.w3.org/2000/svg">
<path d="M88.5395 28.0921C88.5374 28.0897 88.5361 28.0871 88.5341 28.0847L73.8787 10.9311C73.0983 10.0177 71.9614 9.49367 70.76 9.49367H58.6234C57.8966 7.73154 56.8403 6.10448 55.4829 4.69637C54.9498 4.14325 54.0692 4.12693 53.5161 4.66037C52.963 5.19345 52.9468 6.07386 53.4799 6.62716C55.7478 8.98008 56.9969 12.0759 56.9969 15.3449C56.9969 17.6189 56.3917 19.8204 55.2407 21.7559H33.627C32.4777 19.8232 31.8706 17.6076 31.8706 15.3449C31.8706 8.41769 37.5064 2.7819 44.4338 2.7819C45.8458 2.7819 47.2314 3.01402 48.552 3.47213C49.2773 3.72373 50.0701 3.33965 50.3219 2.61361C50.5737 1.88794 50.1894 1.09547 49.4636 0.84368C47.8491 0.284072 46.1569 0 44.4338 0C38.0437 0 32.5556 3.92728 30.2506 9.49386H18.1077C16.9061 9.49386 15.7694 10.0178 14.989 10.9313L0.333427 28.0849C0.331386 28.0871 0.330087 28.0899 0.328046 28.0921C0.110586 28.3471 0 28.6655 0 28.9931V93.6088C0 94.3771 0.622694 94.9998 1.39104 94.9998H11.7616C12.5298 94.9998 13.1527 94.3771 13.1527 93.6088C13.1527 92.8404 12.53 92.2177 11.7616 92.2177H2.7819V38.0215H86.0854V92.2179H18.2218C17.4536 92.2179 16.8307 92.8406 16.8307 93.609C16.8307 94.3773 17.4534 95 18.2218 95H87.4765C88.2446 95 88.8675 94.3773 88.8675 93.609C88.8675 93.609 88.8675 28.9933 88.8675 28.9885C88.8675 28.6731 88.7423 28.3331 88.5395 28.0921ZM59.3773 18.8402H61.317L63.2836 21.7559H58.377C58.8084 20.8191 59.1437 19.8433 59.3773 18.8402ZM30.4907 21.7559H25.5839L27.5505 18.8402H29.4921C29.7259 19.8427 30.0602 20.8196 30.4907 21.7559ZM17.1042 12.7383C17.3553 12.4444 17.721 12.2758 18.1077 12.2758H29.3976C29.1954 13.2677 29.0889 14.2941 29.0889 15.3449C29.0889 15.5831 29.0965 15.8208 29.1074 16.0581H27.1534C26.476 16.0581 25.8453 16.3936 25.4663 16.9552L22.4921 21.3651C22.0706 21.9904 22.0286 22.7925 22.3827 23.4583C22.7367 24.124 23.4252 24.5378 24.1793 24.5378H64.6884C65.4424 24.5378 66.131 24.1242 66.485 23.4583C66.8391 22.7923 66.7971 21.9904 66.3754 21.3649L63.4014 16.9552C63.0225 16.3936 62.3919 16.0583 61.7143 16.0583H59.7605C59.7714 15.8212 59.7786 15.5837 59.7786 15.3451C59.7786 14.3032 59.6723 13.2766 59.4695 12.2759H70.7597C71.1463 12.2759 71.512 12.4446 71.7633 12.7385L84.4584 27.5976H4.40896L17.1042 12.7383ZM86.0856 35.2396H2.7819V30.3793H86.0854V35.2396H86.0856Z" fill="#009C88"/>
<path d="M76.988 76.277H11.8797C10.3794 76.277 9.15869 75.0565 9.15869 73.5562V56.6991C9.15869 55.1987 10.3794 53.978 11.8797 53.978H76.988C78.4883 53.978 79.709 55.1987 79.709 56.6991V73.5562C79.709 75.0565 78.4883 76.277 76.988 76.277ZM11.9419 73.4938H76.9257V56.7612H11.9419V73.4938Z" fill="#4DE6B8"/>
<path d="M28.44 67.5H25.19L24.57 69H22.91L26.03 62H27.63L30.76 69H29.06L28.44 67.5ZM27.93 66.27L26.82 63.59L25.71 66.27H27.93ZM41.3563 69L41.3463 64.8L39.2863 68.26H38.5563L36.5063 64.89V69H34.9863V62H36.3263L38.9463 66.35L41.5263 62H42.8563L42.8763 69H41.3563ZM52.647 67.5H49.397L48.777 69H47.117L50.237 62H51.837L54.967 69H53.267L52.647 67.5ZM52.137 66.27L51.027 63.59L49.917 66.27H52.137ZM59.1933 62H60.8133V67.68H64.3233V69H59.1933V62Z" fill="#009C88"/>
</svg>
