<svg width="451" height="383" viewBox="0 0 451 383" fill="none" xmlns="http://www.w3.org/2000/svg">
<g opacity="0.1">
<path opacity="0.1" d="M108.621 240.966C113.014 240.966 116.575 236.202 116.575 230.324C116.575 224.447 113.014 219.682 108.621 219.682C104.229 219.682 100.668 224.447 100.668 230.324C100.668 236.202 104.229 240.966 108.621 240.966Z" fill="#3F3D56"/>
<path opacity="0.1" d="M114.918 184.792C116.028 182.812 116.602 180.566 116.582 178.285C116.582 172.407 113.017 167.643 108.621 167.643C104.225 167.643 100.64 172.421 100.64 178.299C100.62 180.581 101.194 182.826 102.303 184.806C101.213 186.792 100.64 189.032 100.64 191.309C100.64 193.587 101.213 195.826 102.303 197.812C101.213 199.798 100.64 202.038 100.64 204.315C100.64 206.593 101.213 208.832 102.303 210.818C101.192 212.797 100.618 215.043 100.64 217.325C100.64 223.196 104.204 227.967 108.593 227.967C112.982 227.967 116.554 223.196 116.554 217.325C116.576 215.043 116.002 212.797 114.89 210.818C115.981 208.832 116.553 206.593 116.553 204.315C116.553 202.038 115.981 199.798 114.89 197.812C115.981 195.826 116.553 193.587 116.553 191.309C116.553 189.032 115.981 186.792 114.89 184.806L114.918 184.792Z" fill="#3F3D56"/>
<path opacity="0.1" d="M108.621 175.935C113.014 175.935 116.575 171.171 116.575 165.293C116.575 159.416 113.014 154.651 108.621 154.651C104.229 154.651 100.668 159.416 100.668 165.293C100.668 171.171 104.229 175.935 108.621 175.935Z" fill="#3F3D56"/>
<path opacity="0.1" d="M108.621 162.929C113.014 162.929 116.575 158.164 116.575 152.287C116.575 146.41 113.014 141.645 108.621 141.645C104.229 141.645 100.668 146.41 100.668 152.287C100.668 158.164 104.229 162.929 108.621 162.929Z" fill="#3F3D56"/>
<path opacity="0.1" d="M78.8487 63.2725C77.7587 61.8606 76.7685 60.3713 75.8854 58.8157L96.7822 55.3088L74.1801 55.4803C72.0162 50.6563 70.8382 45.4318 70.718 40.1265C70.5978 34.8212 71.5381 29.5466 73.4812 24.6255L103.806 40.7028L75.8505 19.6901C78.4495 15.0208 81.9655 10.9515 86.1777 7.73787C90.3898 4.52425 95.2069 2.23586 100.326 1.01655C105.445 -0.202763 110.756 -0.326627 115.925 0.65274C121.093 1.63211 126.007 3.69353 130.358 6.70742C134.71 9.72131 138.404 13.6225 141.208 18.1658C144.013 22.709 145.868 27.7961 146.656 33.1073C147.444 38.4184 147.149 43.8387 145.788 49.0275C144.428 54.2164 142.032 59.0614 138.75 63.2582C140.445 65.4582 141.902 67.8384 143.098 70.3577L115.96 84.7994L144.887 74.8788C146.92 81.0154 147.423 87.5734 146.35 93.9588C145.277 100.344 142.663 106.355 138.743 111.447C143.165 117.191 145.915 124.09 146.681 131.356C147.446 138.622 146.195 145.962 143.071 152.535C139.947 159.109 135.076 164.651 129.015 168.529C122.954 172.407 115.947 174.463 108.796 174.463C101.645 174.463 94.6385 172.407 88.5774 168.529C82.5162 164.651 77.6451 159.109 74.5211 152.535C71.3971 145.962 70.1462 138.622 70.9115 131.356C71.6768 124.09 74.4273 117.191 78.8487 111.447C73.5649 104.584 70.6922 96.1039 70.6922 87.3707C70.6922 78.6375 73.5649 70.1577 78.8487 63.294V63.2725Z" fill="#6C63FF"/>
<path opacity="0.1" d="M146.9 87.3491C146.913 96.0846 144.039 104.569 138.744 111.426C143.165 117.169 145.916 124.069 146.681 131.335C147.446 138.601 146.195 145.94 143.071 152.514C139.947 159.087 135.076 164.63 129.015 168.508C122.954 172.385 115.947 174.442 108.796 174.442C101.645 174.442 94.6387 172.385 88.5775 168.508C82.5163 164.63 77.6452 159.087 74.5212 152.514C71.3972 145.94 70.1463 138.601 70.9116 131.335C71.6769 124.069 74.4275 117.169 78.8488 111.426C73.7399 104.798 146.9 82.978 146.9 87.3491Z" fill="black"/>
</g>
<g opacity="0.1">
<path opacity="0.1" d="M201.476 215.518C204.76 215.518 207.423 211.959 207.423 207.569C207.423 203.178 204.76 199.619 201.476 199.619C198.191 199.619 195.528 203.178 195.528 207.569C195.528 211.959 198.191 215.518 201.476 215.518Z" fill="#3F3D56"/>
<path opacity="0.1" d="M206.172 173.55C206.999 172.072 207.426 170.396 207.409 168.693C207.409 164.301 204.746 160.737 201.469 160.737C198.191 160.737 195.521 164.308 195.521 168.693C195.503 170.397 195.933 172.074 196.765 173.55C195.95 175.034 195.521 176.708 195.521 178.41C195.521 180.113 195.95 181.786 196.765 183.271C195.95 184.755 195.521 186.429 195.521 188.131C195.521 189.833 195.95 191.507 196.765 192.991C195.933 194.467 195.503 196.145 195.521 197.848C195.521 202.241 198.184 205.805 201.469 205.805C204.753 205.805 207.409 202.233 207.409 197.848C207.426 196.146 206.999 194.469 206.172 192.991C206.981 191.505 207.406 189.832 207.406 188.131C207.406 186.43 206.981 184.757 206.172 183.271C206.981 181.784 207.406 180.111 207.406 178.41C207.406 176.709 206.981 175.036 206.172 173.55Z" fill="#3F3D56"/>
<path opacity="0.1" d="M201.476 166.921C204.76 166.921 207.423 163.362 207.423 158.972C207.423 154.582 204.76 151.022 201.476 151.022C198.191 151.022 195.528 154.582 195.528 158.972C195.528 163.362 198.191 166.921 201.476 166.921Z" fill="#3F3D56"/>
<path opacity="0.1" d="M201.476 157.201C204.76 157.201 207.423 153.642 207.423 149.252C207.423 144.861 204.76 141.302 201.476 141.302C198.191 141.302 195.528 144.861 195.528 149.252C195.528 153.642 198.191 157.201 201.476 157.201Z" fill="#3F3D56"/>
<path opacity="0.1" d="M179.223 82.7354C178.407 81.682 177.667 80.5697 177.008 79.4071L192.628 76.7859L175.736 76.9145C174.115 73.3102 173.231 69.406 173.137 65.4406C173.044 61.4752 173.742 57.532 175.19 53.8519L197.855 65.8724L176.952 50.1594C178.907 46.694 181.54 43.6777 184.686 41.2987C187.833 38.9197 191.425 37.229 195.24 36.3322C199.054 35.4354 203.008 35.3518 206.856 36.0865C210.703 36.8212 214.361 38.3585 217.601 40.6024C220.842 42.8464 223.594 45.7488 225.688 49.1285C227.781 52.5082 229.171 56.2926 229.769 60.2455C230.368 64.1984 230.163 68.235 229.167 72.1033C228.171 75.9716 226.405 79.5885 223.98 82.7283C225.245 84.3741 226.334 86.1531 227.23 88.035L206.962 98.7985L228.579 91.3848C230.097 95.9707 230.472 100.871 229.671 105.643C228.869 110.414 226.915 114.906 223.987 118.711C227.295 123.002 229.355 128.158 229.93 133.589C230.505 139.02 229.573 144.507 227.239 149.422C224.906 154.336 221.266 158.481 216.736 161.38C212.205 164.28 206.968 165.818 201.622 165.818C196.277 165.818 191.04 164.28 186.509 161.38C181.979 158.481 178.339 154.336 176.006 149.422C173.672 144.507 172.74 139.02 173.315 133.589C173.89 128.158 175.95 123.002 179.258 118.711C175.31 113.582 173.163 107.246 173.163 100.72C173.163 94.1938 175.31 87.8573 179.258 82.7283L179.223 82.7354Z" fill="#6C63FF"/>
<path opacity="0.1" d="M230.074 100.727C230.084 107.254 227.936 113.594 223.98 118.718C227.288 123.009 229.348 128.165 229.923 133.596C230.498 139.027 229.566 144.514 227.232 149.429C224.899 154.344 221.259 158.488 216.729 161.387C212.199 164.287 206.961 165.825 201.616 165.825C196.27 165.825 191.033 164.287 186.503 161.387C181.972 158.488 178.332 154.344 175.999 149.429C173.665 144.514 172.733 139.027 173.308 133.596C173.883 128.165 175.943 123.009 179.251 118.718C175.421 113.769 230.074 97.4628 230.074 100.727Z" fill="black"/>
</g>
<g opacity="0.1">
<path opacity="0.1" d="M422.632 211.233C425.917 211.233 428.58 207.674 428.58 203.284C428.58 198.894 425.917 195.334 422.632 195.334C419.347 195.334 416.685 198.894 416.685 203.284C416.685 207.674 419.347 211.233 422.632 211.233Z" fill="#3F3D56"/>
<path opacity="0.1" d="M417.936 169.265C417.109 167.787 416.682 166.111 416.699 164.408C416.699 160.016 419.361 156.452 422.639 156.452C425.917 156.452 428.587 160.023 428.587 164.408C428.605 166.112 428.175 167.789 427.343 169.265C428.158 170.749 428.586 172.423 428.586 174.125C428.586 175.828 428.158 177.501 427.343 178.986C428.158 180.47 428.586 182.144 428.586 183.846C428.586 185.548 428.158 187.222 427.343 188.706C428.175 190.182 428.605 191.86 428.587 193.563C428.587 197.956 425.924 201.52 422.639 201.52C419.354 201.52 416.699 197.948 416.699 193.563C416.682 191.861 417.109 190.184 417.936 188.706C417.127 187.22 416.702 185.547 416.702 183.846C416.702 182.145 417.127 180.472 417.936 178.986C417.127 177.499 416.702 175.826 416.702 174.125C416.702 172.424 417.127 170.751 417.936 169.265Z" fill="#3F3D56"/>
<path opacity="0.1" d="M422.632 162.637C425.917 162.637 428.58 159.078 428.58 154.687C428.58 150.297 425.917 146.738 422.632 146.738C419.347 146.738 416.685 150.297 416.685 154.687C416.685 159.078 419.347 162.637 422.632 162.637Z" fill="#3F3D56"/>
<path opacity="0.1" d="M422.632 152.917C425.917 152.917 428.58 149.358 428.58 144.967C428.58 140.577 425.917 137.018 422.632 137.018C419.347 137.018 416.685 140.577 416.685 144.967C416.685 149.358 419.347 152.917 422.632 152.917Z" fill="#3F3D56"/>
<path opacity="0.1" d="M444.885 78.4503C445.701 77.3969 446.441 76.2846 447.1 75.122L431.48 72.5007L448.372 72.6293C449.993 69.025 450.877 65.1208 450.971 61.1555C451.064 57.1901 450.366 53.2468 448.917 49.5668L426.252 61.5873L447.156 45.8742C445.201 42.4089 442.568 39.3926 439.422 37.0135C436.275 34.6345 432.683 32.9438 428.868 32.0471C425.054 31.1503 421.099 31.0666 417.252 31.8013C413.405 32.5361 409.747 34.0734 406.506 36.3173C403.266 38.5612 400.513 41.4636 398.42 44.8433C396.326 48.223 394.937 52.0074 394.338 55.9603C393.74 59.9133 393.945 63.9499 394.941 67.8182C395.937 71.6864 397.703 75.3034 400.128 78.4431C398.863 80.0889 397.774 81.8679 396.878 83.7499L417.146 94.5133L395.571 87.1068C394.053 91.6926 393.677 96.5931 394.479 101.365C395.281 106.136 397.234 110.628 400.163 114.433C396.855 118.724 394.795 123.88 394.22 129.311C393.645 134.742 394.577 140.229 396.91 145.144C399.244 150.058 402.884 154.203 407.414 157.102C411.944 160.002 417.182 161.54 422.527 161.54C427.873 161.54 433.11 160.002 437.64 157.102C442.171 154.203 445.811 150.058 448.144 145.144C450.477 140.229 451.41 134.742 450.835 129.311C450.26 123.88 448.2 118.724 444.892 114.433C448.84 109.304 450.987 102.968 450.987 96.4418C450.987 89.9158 448.84 83.5793 444.892 78.4503H444.885Z" fill="#6C63FF"/>
<path opacity="0.1" d="M394.034 96.4417C394.024 102.969 396.172 109.309 400.128 114.433C396.82 118.724 394.76 123.88 394.185 129.311C393.61 134.742 394.542 140.229 396.876 145.144C399.209 150.058 402.849 154.203 407.379 157.102C411.91 160.002 417.147 161.54 422.492 161.54C427.838 161.54 433.075 160.002 437.606 157.102C442.136 154.203 445.776 150.058 448.109 145.144C450.443 140.229 451.375 134.742 450.8 129.311C450.225 123.88 448.165 118.724 444.857 114.433C448.687 109.484 394.034 93.1777 394.034 96.4417Z" fill="black"/>
</g>
<path opacity="0.1" d="M225.392 330.231C349.872 330.231 450.783 327.353 450.783 323.803C450.783 320.252 349.872 317.375 225.392 317.375C100.911 317.375 0 320.252 0 323.803C0 327.353 100.911 330.231 225.392 330.231Z" fill="#FEFEFE"/>
<path opacity="0.1" d="M225.392 382.37C349.872 382.37 450.783 379.492 450.783 375.942C450.783 372.391 349.872 369.513 225.392 369.513C100.911 369.513 0 372.391 0 375.942C0 379.492 100.911 382.37 225.392 382.37Z" fill="white"/>
<path opacity="0.1" d="M225.392 221.668C349.872 221.668 450.783 218.79 450.783 215.24C450.783 211.69 349.872 208.812 225.392 208.812C100.911 208.812 0 211.69 0 215.24C0 218.79 100.911 221.668 225.392 221.668Z" fill="#FEFEFE"/>
<path opacity="0.1" d="M225.392 275.949C349.872 275.949 450.783 273.071 450.783 269.521C450.783 265.971 349.872 263.093 225.392 263.093C100.911 263.093 0 265.971 0 269.521C0 273.071 100.911 275.949 225.392 275.949Z" fill="#FEFEFE"/>
<path d="M237.839 321.846C239.663 318.389 237.594 314.16 235.218 311.082C232.842 308.004 229.935 304.797 229.997 300.876C230.088 295.24 235.945 291.905 240.62 288.919C244.093 286.695 247.295 284.057 250.16 281.063C251.359 279.91 252.35 278.552 253.089 277.049C254.06 274.849 254.032 272.335 253.969 269.907C253.769 261.864 253.38 253.827 252.802 245.794" stroke="#3F3D56" stroke-width="4" stroke-miterlimit="10"/>
<path d="M261.699 245.394C261.631 243.921 261.202 242.489 260.451 241.229C259.7 239.97 258.651 238.924 257.401 238.187L255.472 242.08L255.535 237.366C253.785 236.84 251.918 236.895 250.201 237.524C248.484 238.153 247.008 239.323 245.984 240.866C244.961 242.408 244.443 244.243 244.507 246.105C244.57 247.968 245.211 249.762 246.337 251.228C247.462 252.694 249.015 253.757 250.77 254.262C252.525 254.768 254.392 254.691 256.101 254.042C257.811 253.393 259.274 252.205 260.28 250.651C261.286 249.096 261.783 247.256 261.699 245.394Z" fill="white"/>
<path d="M246.351 304.904C245.486 306.623 244.09 308.003 242.38 308.83C240.67 309.656 238.741 309.884 236.892 309.477C235.042 309.071 233.376 308.052 232.15 306.58C230.923 305.108 230.206 303.264 230.109 301.333C230.045 300.115 230.236 298.898 230.668 297.762C231.302 296.105 232.412 294.683 233.853 293.684C235.293 292.685 236.996 292.155 238.737 292.165C240.478 292.175 242.175 292.724 243.604 293.74C245.033 294.756 246.128 296.19 246.743 297.855L241.368 302.326L247.281 300.897C247.288 302.289 246.969 303.663 246.351 304.904Z" fill="#57B793"/>
<path d="M242.102 287.834C239.991 287.936 237.917 287.24 236.275 285.878C234.634 284.517 233.541 282.586 233.204 280.453C232.867 278.321 233.31 276.136 234.448 274.316C235.587 272.496 237.341 271.168 239.376 270.585L239.327 274.207L241.277 270.264C243.557 270.155 245.786 270.976 247.474 272.547C249.161 274.117 250.169 276.308 250.276 278.638C250.382 280.968 249.579 283.246 248.042 284.971C246.505 286.695 244.361 287.725 242.081 287.834H242.102Z" fill="white"/>
<path d="M262.992 273.628C261.658 273.699 260.326 273.451 259.103 272.904C257.879 272.357 256.796 271.527 255.941 270.479C255.085 269.43 254.48 268.193 254.174 266.864C253.868 265.536 253.868 264.152 254.176 262.824C254.483 261.496 255.089 260.259 255.945 259.211C256.802 258.163 257.885 257.334 259.109 256.788C260.334 256.243 261.665 255.996 262.999 256.068C264.333 256.139 265.632 256.527 266.794 257.201L265.277 261.486L268.373 258.358C269.626 259.531 270.51 261.057 270.915 262.743C271.32 264.429 271.227 266.2 270.649 267.833C270.07 269.465 269.031 270.886 267.664 271.916C266.296 272.946 264.661 273.539 262.964 273.621L262.992 273.628Z" fill="#57B793"/>
<path opacity="0.1" d="M260.539 247.737C258.554 247.958 256.625 248.587 254.626 248.716C252.627 248.844 250.433 248.351 249.189 246.773C248.604 245.853 248.072 244.899 247.595 243.916C247.052 243.049 246.308 242.333 245.429 241.83C244.872 242.945 244.555 244.167 244.498 245.417C244.44 246.667 244.645 247.915 245.097 249.077C245.55 250.24 246.24 251.29 247.121 252.158C248.003 253.027 249.055 253.692 250.209 254.112C251.362 254.531 252.59 254.694 253.81 254.589C255.03 254.485 256.214 254.116 257.283 253.506C258.352 252.897 259.281 252.061 260.009 251.055C260.737 250.049 261.246 248.896 261.503 247.673C261.189 247.68 260.86 247.701 260.539 247.737Z" fill="black"/>
<path opacity="0.1" d="M262.992 273.628C261.509 273.7 260.032 273.378 258.707 272.694C257.381 272.009 256.251 270.986 255.427 269.723C254.603 268.461 254.113 267.002 254.005 265.488C253.896 263.974 254.173 262.458 254.808 261.086C255.49 261.557 256.076 262.158 256.534 262.857C257.048 263.858 257.618 264.829 258.24 265.764C259.581 267.371 261.874 267.907 263.949 267.8C266.025 267.693 268.031 267.085 270.1 266.907C270.386 266.907 270.673 266.864 270.966 266.857C270.538 268.718 269.528 270.386 268.089 271.608C266.65 272.83 264.861 273.539 262.992 273.628Z" fill="black"/>
<path opacity="0.1" d="M242.102 287.834C240.634 287.904 239.173 287.589 237.858 286.919C236.543 286.248 235.418 285.244 234.59 284.003C233.762 282.762 233.26 281.325 233.13 279.828C233 278.332 233.247 276.827 233.848 275.457C234.557 275.934 235.176 276.539 235.672 277.242C236.236 278.267 236.859 279.257 237.538 280.206C238.985 281.856 241.431 282.442 243.626 282.349C245.82 282.256 247.819 281.77 249.916 281.635C249.394 283.363 248.364 284.885 246.966 285.994C245.568 287.103 243.87 287.746 242.102 287.834Z" fill="black"/>
<path opacity="0.1" d="M246.351 304.904C245.486 306.623 244.09 308.003 242.38 308.829C240.67 309.656 238.741 309.884 236.892 309.477C235.042 309.071 233.376 308.052 232.15 306.58C230.923 305.108 230.206 303.264 230.109 301.333C230.045 300.115 230.236 298.898 230.668 297.762C231.377 298.237 232.013 298.817 232.555 299.483C233.373 300.497 233.911 301.626 234.862 302.604C236.616 304.368 239.46 305.097 241.983 305.161C243.443 305.166 244.902 305.08 246.351 304.904Z" fill="black"/>
<path d="M95.4125 211.59C93.5884 208.14 95.6571 203.912 98.0403 200.833C100.424 197.755 103.317 194.548 103.254 190.627C103.17 184.984 97.3135 181.656 92.6309 178.671C89.16 176.447 85.96 173.81 83.0981 170.814C81.894 169.668 80.9 168.311 80.1627 166.807C79.1983 164.6 79.2262 162.093 79.2821 159.665C79.4918 151.623 79.8808 143.585 80.4493 135.552" stroke="#3F3D56" stroke-width="4" stroke-miterlimit="10"/>
<path d="M71.5592 135.146C71.6254 133.673 72.0531 132.241 72.803 130.981C73.5529 129.722 74.6009 128.676 75.8504 127.939L77.7793 131.832L77.7234 127.118C78.6421 126.845 79.5981 126.727 80.5539 126.768C82.2535 126.849 83.8914 127.443 85.2606 128.475C86.6297 129.507 87.6687 130.931 88.2461 132.566C88.8235 134.202 88.9135 135.976 88.5046 137.664C88.0956 139.351 87.2062 140.877 85.9488 142.048C84.6913 143.22 83.1223 143.984 81.44 144.244C79.7577 144.504 78.0378 144.248 76.4977 143.509C74.9575 142.77 73.6663 141.582 72.7873 140.093C71.9083 138.604 71.4809 136.883 71.5592 135.146Z" fill="white"/>
<path d="M86.8999 194.656C87.8018 196.45 89.28 197.873 91.0867 198.685C92.8933 199.498 94.9185 199.651 96.8225 199.119C98.7264 198.587 100.393 197.402 101.544 195.762C102.694 194.123 103.258 192.13 103.141 190.116C103.023 188.102 102.232 186.191 100.9 184.703C99.567 183.215 97.7741 182.24 95.8218 181.942C93.8695 181.645 91.8764 182.042 90.1769 183.068C88.4773 184.094 87.1747 185.686 86.4875 187.578L91.862 192.049L85.9494 190.62C85.9446 192.024 86.2706 193.408 86.8999 194.656Z" fill="#57B793"/>
<path d="M91.1491 177.585C93.2612 177.689 95.3368 176.994 96.9795 175.633C98.6223 174.273 99.7171 172.341 100.055 170.208C100.393 168.075 99.9504 165.889 98.8118 164.068C97.6731 162.248 95.918 160.919 93.8818 160.336L93.9237 163.958L91.9738 160.015C89.6948 159.9 87.4647 160.716 85.7739 162.282C84.0831 163.847 83.0703 166.035 82.9581 168.364C82.909 169.379 83.0344 170.394 83.3285 171.364C83.8445 173.099 84.8731 174.628 86.2733 175.742C87.6735 176.856 89.3767 177.5 91.1491 177.585Z" fill="white"/>
<path d="M70.2663 163.365C71.6 163.434 72.9312 163.185 74.1546 162.638C75.3779 162.091 76.4597 161.26 77.3144 160.211C78.1691 159.162 78.7732 157.925 79.0789 156.596C79.3845 155.268 79.3833 153.885 79.0754 152.557C78.7675 151.229 78.1613 149.992 77.3048 148.945C76.4483 147.898 75.3651 147.069 74.1408 146.524C72.9166 145.979 71.5849 145.732 70.2513 145.804C68.9177 145.876 67.6188 146.264 66.4574 146.937L67.9809 151.223L64.8499 148.159C64.0148 148.932 63.3378 149.866 62.858 150.908C62.3781 151.95 62.105 153.079 62.0544 154.23C62.0128 155.043 62.0857 155.859 62.271 156.651C62.7096 158.506 63.727 160.164 65.1694 161.375C66.6119 162.586 68.401 163.285 70.2663 163.365Z" fill="#57B793"/>
<path opacity="0.1" d="M72.7195 137.489C74.7044 137.71 76.6333 138.339 78.6251 138.467C80.617 138.596 82.8185 138.103 84.0695 136.525C84.6523 135.605 85.182 134.651 85.656 133.668C86.2019 132.801 86.9484 132.084 87.8295 131.582C88.3872 132.697 88.7055 133.92 88.7632 135.171C88.8209 136.421 88.6166 137.67 88.1641 138.833C87.7115 139.996 87.0211 141.047 86.139 141.916C85.2569 142.785 84.2035 143.451 83.0492 143.87C81.8949 144.289 80.6663 144.451 79.4457 144.346C78.2251 144.24 77.0406 143.87 75.9713 143.259C74.9021 142.648 73.9729 141.811 73.2457 140.804C72.5186 139.796 72.0104 138.642 71.7551 137.417C72.0696 137.424 72.391 137.453 72.7195 137.489Z" fill="black"/>
<path opacity="0.1" d="M70.2663 163.365C71.7491 163.435 73.2242 163.111 74.5487 162.427C75.8732 161.742 77.002 160.719 77.8255 159.457C78.649 158.195 79.1393 156.737 79.2488 155.224C79.3582 153.711 79.0832 152.195 78.4503 150.823C77.7662 151.294 77.1776 151.895 76.7171 152.594C76.203 153.596 75.6337 154.566 75.0118 155.501C73.6769 157.108 71.3845 157.644 69.3088 157.537C67.2331 157.43 65.2273 156.823 63.1586 156.644C62.8721 156.644 62.5785 156.601 62.292 156.594C62.719 158.456 63.7287 160.124 65.1679 161.346C66.6071 162.568 68.3972 163.277 70.2663 163.365Z" fill="#009C88"/>
<path opacity="0.1" d="M91.149 177.585C92.6178 177.658 94.0801 177.344 95.3962 176.674C96.7124 176.004 97.8383 175 98.6664 173.758C99.4945 172.516 99.997 171.078 100.126 169.581C100.255 168.084 100.006 166.578 99.4029 165.208C98.6946 165.683 98.0786 166.289 97.5858 166.993C97.0223 168.019 96.3991 169.008 95.7198 169.957C94.2661 171.607 91.827 172.193 89.6255 172.1C87.424 172.007 85.4321 171.522 83.3354 171.386C83.8546 173.116 84.8837 174.64 86.2822 175.749C87.6808 176.859 89.3805 177.5 91.149 177.585Z" fill="black"/>
<path opacity="0.1" d="M86.8998 194.655C87.9098 196.645 89.6251 198.165 91.6952 198.906C93.7653 199.646 96.034 199.55 98.0374 198.638C100.041 197.726 101.628 196.067 102.474 193.999C103.32 191.931 103.362 189.611 102.59 187.513C101.878 187.985 101.242 188.565 100.703 189.234C99.8852 190.249 99.3051 191.377 98.3966 192.356C96.6354 194.12 93.7979 194.848 91.2679 194.913C89.8082 194.913 88.3498 194.828 86.8998 194.655Z" fill="black"/>
<path d="M318.505 213.197C357.088 213.197 388.366 181.232 388.366 141.802C388.366 102.372 357.088 70.4077 318.505 70.4077C279.922 70.4077 248.644 102.372 248.644 141.802C248.644 181.232 279.922 213.197 318.505 213.197Z" fill="white"/>
<path d="M348.494 160.215C346.062 157.73 340.212 153.98 337.312 152.58C333.964 150.938 332.734 150.966 330.365 152.716C328.394 154.144 327.115 155.523 324.851 155.016C322.586 154.509 318.099 151.052 313.759 146.631C309.419 142.21 306.051 137.653 305.568 135.303C305.086 132.953 306.414 131.675 307.826 129.661C309.531 127.239 309.58 125.982 307.959 122.561C306.561 119.597 302.934 113.633 300.48 111.133C298.027 108.634 297.496 109.184 296.154 109.705C294.773 110.297 293.447 111.014 292.192 111.848C289.759 113.512 288.397 114.897 287.439 116.983C286.482 119.069 285.398 122.94 290.969 133.075C295.078 140.828 300.282 147.92 306.414 154.123C312.504 160.404 319.468 165.732 327.08 169.936C336.99 175.65 340.785 174.514 342.826 173.543C344.867 172.572 346.223 171.193 347.844 168.686C348.662 167.404 349.364 166.049 349.941 164.637C350.402 163.265 350.947 162.708 348.494 160.215Z" fill="#57B793"/>
<path opacity="0.1" d="M318.505 70.4148C304.679 70.4077 291.162 74.5915 279.663 82.4369C268.165 90.2823 259.202 101.437 253.908 114.489C248.614 127.541 247.227 141.905 249.922 155.763C252.618 169.621 259.275 182.351 269.051 192.342C278.827 202.333 291.283 209.136 304.844 211.89C318.404 214.645 332.459 213.228 345.231 207.817C358.003 202.407 368.918 193.247 376.595 181.496C384.272 169.745 388.366 155.931 388.359 141.802C388.349 122.872 380.987 104.72 367.889 91.3342C354.791 77.9485 337.028 70.4243 318.505 70.4148ZM318.505 203.705C306.525 203.705 294.813 200.074 284.852 193.272C274.891 186.47 267.127 176.802 262.543 165.491C257.958 154.18 256.759 141.734 259.096 129.726C261.433 117.718 267.202 106.688 275.673 98.0306C284.145 89.3734 294.938 83.4778 306.688 81.0892C318.438 78.7007 330.617 79.9266 341.685 84.6118C352.753 89.2971 362.213 97.2313 368.869 107.411C375.525 117.591 379.077 129.559 379.077 141.802C379.077 149.931 377.511 157.981 374.467 165.491C371.423 173.002 366.961 179.826 361.336 185.574C355.711 191.322 349.034 195.882 341.685 198.993C334.336 202.103 326.459 203.705 318.505 203.705Z" fill="black"/>
<path d="M158.005 321.638C196.588 321.638 227.866 289.674 227.866 250.244C227.866 210.814 196.588 178.849 158.005 178.849C119.422 178.849 88.1439 210.814 88.1439 250.244C88.1439 289.674 119.422 321.638 158.005 321.638Z" fill="white"/>
<path d="M197.737 228.674L176.819 250.422C176.782 250.458 176.753 250.502 176.733 250.549C176.713 250.597 176.703 250.649 176.703 250.701C176.703 250.753 176.713 250.804 176.733 250.852C176.753 250.9 176.782 250.943 176.819 250.979L191.496 266.928C191.847 267.29 192.086 267.749 192.182 268.249C192.279 268.749 192.228 269.266 192.038 269.737C191.848 270.208 191.526 270.611 191.112 270.895C190.698 271.179 190.212 271.332 189.713 271.335C189.043 271.334 188.4 271.061 187.924 270.578L173.325 254.686C173.25 254.611 173.15 254.569 173.045 254.569C172.94 254.569 172.84 254.611 172.765 254.686L169.208 258.357C167.752 259.88 166.012 261.089 164.092 261.914C162.171 262.74 160.109 263.165 158.026 263.164C155.903 263.154 153.804 262.712 151.85 261.863C149.897 261.015 148.128 259.777 146.648 258.222L143.23 254.651C143.156 254.576 143.055 254.533 142.951 254.533C142.846 254.533 142.746 254.576 142.671 254.651L128.106 270.507C127.872 270.746 127.594 270.937 127.287 271.067C126.981 271.197 126.652 271.263 126.321 271.263C125.989 271.263 125.661 271.197 125.354 271.067C125.048 270.937 124.769 270.746 124.535 270.507C124.299 270.268 124.112 269.983 123.985 269.67C123.857 269.357 123.792 269.021 123.792 268.682C123.792 268.342 123.857 268.006 123.985 267.693C124.112 267.38 124.299 267.096 124.535 266.857L139.156 250.944C139.221 250.866 139.256 250.767 139.256 250.665C139.256 250.563 139.221 250.464 139.156 250.387L118.238 228.638C118.184 228.583 118.116 228.545 118.041 228.53C117.966 228.515 117.889 228.523 117.818 228.552C117.748 228.582 117.688 228.633 117.645 228.698C117.603 228.763 117.581 228.839 117.581 228.917V272.435C117.587 274.117 118.243 275.729 119.407 276.918C120.571 278.108 122.148 278.779 123.794 278.784H192.195C193.841 278.779 195.418 278.108 196.582 276.918C197.746 275.729 198.402 274.117 198.408 272.435V228.953C198.411 228.872 198.39 228.791 198.347 228.723C198.304 228.655 198.242 228.602 198.168 228.571C198.095 228.541 198.014 228.534 197.937 228.553C197.859 228.571 197.79 228.613 197.737 228.674Z" fill="#57B793"/>
<path d="M158.005 258C159.423 258.015 160.829 257.737 162.14 257.185C163.451 256.633 164.64 255.817 165.637 254.786L196.101 223.096C195.02 222.18 193.662 221.676 192.257 221.667H123.808C122.403 221.672 121.044 222.177 119.964 223.096L150.436 254.786C151.424 255.812 152.602 256.624 153.902 257.176C155.202 257.728 156.597 258.008 158.005 258Z" fill="#57B793"/>
<path opacity="0.1" d="M157.124 178.857C143.299 178.85 129.781 183.034 118.283 190.879C106.784 198.724 97.8211 209.879 92.5271 222.931C87.233 235.983 85.846 250.347 88.5416 264.205C91.2372 278.063 97.8941 290.793 107.67 300.784C117.447 310.775 129.903 317.578 143.463 320.333C157.024 323.087 171.079 321.67 183.851 316.26C196.623 310.849 207.538 301.689 215.214 289.938C222.891 278.187 226.985 264.374 226.978 250.244C226.969 231.314 219.606 213.162 206.508 199.776C193.41 186.391 175.648 178.866 157.124 178.857ZM157.124 312.147C145.144 312.147 133.433 308.516 123.472 301.714C113.511 294.912 105.747 285.245 101.162 273.933C96.5778 262.622 95.3782 250.176 97.7154 238.168C100.053 226.16 105.822 215.13 114.293 206.473C122.764 197.816 133.557 191.92 145.307 189.531C157.057 187.143 169.236 188.369 180.304 193.054C191.373 197.739 200.833 205.673 207.489 215.853C214.144 226.033 217.697 238.001 217.697 250.244C217.697 266.662 211.315 282.407 199.956 294.016C188.596 305.625 173.189 312.147 157.124 312.147Z" fill="black"/>
<g opacity="0.1">
<path opacity="0.1" d="M304.856 304.247H304.702C305.295 304.365 305.905 304.365 306.498 304.247H306.673C306.07 304.157 305.458 304.157 304.856 304.247Z" fill="black"/>
<path opacity="0.1" d="M319.274 288.948C318.288 291.212 316.834 303.476 316.576 305.911C317.54 306.168 318.176 306.354 318.176 306.354C318.176 306.354 319.686 291.927 320.79 289.37L319.274 288.948Z" fill="black"/>
</g>
<path d="M358.104 267.643C359.928 264.193 357.859 259.957 355.476 256.879C353.093 253.801 350.199 250.601 350.262 246.673C350.346 241.037 356.203 237.709 360.885 234.717C364.357 232.493 367.557 229.856 370.418 226.86C371.621 225.712 372.614 224.355 373.354 222.853C374.318 220.646 374.29 218.139 374.234 215.711C374.029 207.664 373.64 199.626 373.067 191.598" stroke="#3F3D56" stroke-width="4" stroke-miterlimit="10"/>
<path d="M381.957 191.17C381.89 189.698 381.462 188.267 380.712 187.009C379.962 185.751 378.915 184.706 377.666 183.97L375.737 187.863L375.793 183.149C374.875 182.869 373.918 182.751 372.962 182.799C371.262 182.88 369.624 183.474 368.255 184.507C366.885 185.539 365.847 186.964 365.269 188.6C364.692 190.236 364.603 192.01 365.012 193.698C365.422 195.386 366.312 196.911 367.57 198.082C368.828 199.253 370.398 200.017 372.081 200.276C373.763 200.535 375.483 200.278 377.023 199.538C378.563 198.798 379.854 197.608 380.732 196.119C381.61 194.629 382.036 192.907 381.957 191.17Z" fill="#57B793"/>
<path d="M366.616 250.687C365.714 252.481 364.235 253.903 362.429 254.715C360.622 255.527 358.597 255.68 356.694 255.147C354.79 254.615 353.124 253.43 351.974 251.791C350.823 250.152 350.26 248.158 350.377 246.145C350.494 244.132 351.285 242.221 352.617 240.732C353.949 239.244 355.742 238.269 357.694 237.971C359.645 237.673 361.638 238.07 363.338 239.095C365.038 240.12 366.341 241.712 367.029 243.602L361.654 248.073L367.567 246.645C367.573 248.051 367.247 249.437 366.616 250.687Z" fill="white"/>
<path d="M362.367 233.61C360.255 233.714 358.179 233.019 356.537 231.658C354.894 230.297 353.799 228.366 353.461 226.233C353.123 224.1 353.566 221.914 354.704 220.093C355.843 218.272 357.598 216.944 359.634 216.361L359.592 219.982L361.542 216.047C363.822 215.94 366.05 216.763 367.736 218.333C369.423 219.904 370.43 222.095 370.537 224.425C370.59 225.578 370.421 226.731 370.038 227.817C369.655 228.904 369.067 229.902 368.306 230.756C367.545 231.61 366.627 232.302 365.605 232.793C364.582 233.284 363.475 233.564 362.346 233.617L362.367 233.61Z" fill="#57B793"/>
<path d="M383.25 219.411C381.916 219.48 380.585 219.231 379.362 218.684C378.138 218.137 377.056 217.306 376.202 216.257C375.347 215.208 374.743 213.971 374.437 212.642C374.132 211.314 374.133 209.931 374.441 208.603C374.749 207.275 375.355 206.038 376.211 204.991C377.068 203.944 378.151 203.115 379.375 202.57C380.6 202.025 381.931 201.778 383.265 201.85C384.598 201.922 385.897 202.31 387.059 202.984L385.535 207.269L388.666 204.198C389.5 204.972 390.177 205.906 390.657 206.948C391.136 207.99 391.41 209.119 391.462 210.269C391.504 211.082 391.431 211.898 391.245 212.69C390.807 214.545 389.79 216.204 388.347 217.417C386.905 218.629 385.116 219.329 383.25 219.411Z" fill="white"/>
<path opacity="0.1" d="M380.804 193.513C378.819 193.741 376.883 194.37 374.891 194.498C372.899 194.627 370.698 194.134 369.447 192.548C368.862 191.63 368.332 190.676 367.86 189.691C367.315 188.826 366.571 188.111 365.694 187.606C365.136 188.721 364.818 189.944 364.76 191.194C364.702 192.445 364.907 193.694 365.359 194.857C365.812 196.02 366.502 197.071 367.384 197.94C368.266 198.808 369.32 199.475 370.474 199.894C371.628 200.313 372.857 200.475 374.078 200.37C375.298 200.264 376.483 199.894 377.552 199.283C378.621 198.672 379.55 197.835 380.277 196.828C381.005 195.82 381.513 194.666 381.768 193.441C381.447 193.455 381.125 193.477 380.804 193.513Z" fill="black"/>
<path opacity="0.1" d="M383.25 219.411C381.767 219.48 380.292 219.157 378.968 218.472C377.643 217.788 376.514 216.764 375.691 215.502C374.867 214.24 374.377 212.782 374.268 211.27C374.158 209.757 374.433 208.241 375.066 206.869C375.75 207.337 376.339 207.936 376.799 208.633C377.31 209.636 377.88 210.607 378.505 211.54C379.839 213.154 382.132 213.682 384.208 213.582C386.283 213.482 388.289 212.868 390.358 212.69C390.644 212.69 390.938 212.64 391.224 212.633C390.798 214.495 389.788 216.164 388.349 217.388C386.91 218.611 385.12 219.321 383.25 219.411Z" fill="black"/>
<path opacity="0.1" d="M362.367 233.609C360.896 233.683 359.432 233.369 358.114 232.698C356.796 232.028 355.669 231.022 354.841 229.778C354.012 228.534 353.51 227.094 353.383 225.595C353.255 224.096 353.507 222.589 354.113 221.218C354.818 221.697 355.434 222.302 355.93 223.003C356.629 223.967 357.013 225.082 357.796 225.967C359.25 227.624 361.689 228.203 363.89 228.153C366.092 228.103 368.084 227.567 370.18 227.403C369.662 229.133 368.633 230.658 367.234 231.769C365.836 232.88 364.136 233.523 362.367 233.609Z" fill="black"/>
<path opacity="0.1" d="M366.616 250.687C365.59 252.648 363.875 254.14 361.816 254.862C359.758 255.584 357.508 255.482 355.519 254.577C353.531 253.672 351.952 252.031 351.1 249.984C350.248 247.937 350.186 245.636 350.926 243.544C351.636 244.018 352.273 244.598 352.813 245.266C353.638 246.287 354.176 247.408 355.12 248.394C356.881 250.158 359.718 250.88 362.248 250.951C363.708 250.949 365.167 250.861 366.616 250.687Z" fill="black"/>
</svg>
