<svg width="658" height="485" viewBox="0 0 658 485" fill="none" xmlns="http://www.w3.org/2000/svg">
<g clip-path="url(#clip0)">
<path d="M473.503 287.719L478.68 284.542C479.172 284.231 479.657 283.901 480.156 283.59C469.054 281.691 458.937 276.078 451.479 267.68C444.022 259.282 439.671 248.603 439.147 237.41C438.767 229.712 440.23 222.034 443.416 215.009C446.382 208.435 450.762 202.589 456.247 197.883C461.732 193.176 468.188 189.724 475.16 187.769L474.903 208.033L486.094 185.977C486.14 185.97 486.187 185.97 486.233 185.977C492.718 185.676 499.199 186.648 505.306 188.839C511.414 191.029 517.027 194.394 521.827 198.743C526.627 203.091 530.518 208.338 533.279 214.182C536.04 220.027 537.617 226.355 537.92 232.806C537.961 233.743 537.92 234.667 537.92 235.563C541.814 231.144 545.348 226.409 547.69 221.219C552.43 210.708 552.541 198.804 552.146 184.337C551.397 155.663 550.157 126.776 548.535 97.9719C536.851 96.6811 526.012 91.2881 517.966 82.7617C509.92 74.2353 505.194 63.1345 504.637 51.4535C504.568 49.944 504.589 48.4621 504.637 46.9871C504.637 46.6218 504.637 46.2496 504.693 45.8843C504.79 44.4575 504.922 43.0445 505.143 41.6522C505.143 41.4178 505.226 41.1973 505.268 40.9629C505.471 39.782 505.714 38.6148 505.996 37.4615C506.106 37.0341 506.21 36.5999 506.328 36.1725C506.675 34.9181 507.021 33.6843 507.499 32.4643C507.645 32.0576 507.818 31.6648 507.97 31.265C508.324 30.3689 508.705 29.4867 509.107 28.6113C509.322 28.1495 509.53 27.6946 509.758 27.2328C509.814 27.1156 509.862 26.9984 509.925 26.8813C515.142 16.6308 523.805 8.52296 534.409 3.96703C545.013 -0.58889 556.886 -1.30481 567.966 1.94373L567.633 28.3149L578.72 6.53422C587.814 11.7121 595.006 19.6466 599.245 29.1788C603.483 38.7111 604.547 49.3416 602.28 59.5179H602.336C602.26 59.8694 602.149 60.2071 602.065 60.5518C601.913 61.1997 601.747 61.8407 601.567 62.4817C601.331 63.3019 601.068 64.1084 600.797 64.9148C600.59 65.5145 600.389 66.1279 600.16 66.7207C599.827 67.5891 599.467 68.4369 599.065 69.2847C598.843 69.781 598.642 70.2842 598.372 70.7736C597.739 72.0418 597.046 73.2825 596.293 74.4956C596.037 74.916 595.746 75.3158 595.476 75.7362C594.949 76.5496 594.415 77.356 593.84 78.1418C593.487 78.6243 593.106 79.0861 592.732 79.5617C592.191 80.2509 591.637 80.9402 591.062 81.5674C590.653 82.0292 590.237 82.4841 589.807 82.9459C589.204 83.5801 588.581 84.1935 587.936 84.8001C587.514 85.2067 587.084 85.6134 586.641 85.9994C585.913 86.6404 585.151 87.2538 584.382 87.8535C583.993 88.1568 583.619 88.4738 583.217 88.7633C582.049 89.6272 580.841 90.4382 579.593 91.1964C579.358 91.3343 579.108 91.4514 578.9 91.5893C577.861 92.2027 576.822 92.7748 575.706 93.3124C575.242 93.5399 574.757 93.7398 574.278 93.9535C573.385 94.3532 572.484 94.7392 571.562 95.0907C571.028 95.2906 570.481 95.4767 569.934 95.6628C569.026 95.973 568.104 96.2556 567.162 96.5106C566.607 96.6623 566.06 96.8139 565.499 96.9449C564.487 97.1861 563.455 97.386 562.415 97.5583C562.346 97.5583 562.284 97.5583 562.214 97.5997C562.898 109.749 563.505 121.905 564.037 134.069C566.984 128.05 571.137 122.694 576.239 118.329C581.342 113.964 587.288 110.682 593.712 108.685C600.135 106.687 606.902 106.016 613.596 106.713C620.289 107.409 626.769 109.459 632.638 112.736L623.9 136.55L641.875 119.38C651.497 128.153 657.229 140.363 657.813 153.333C658.042 157.884 657.619 162.445 656.559 166.878C654.301 176.47 649.196 185.167 641.908 191.838C634.62 198.51 625.485 202.849 615.687 204.293C605.889 205.737 595.881 204.218 586.961 199.934C578.041 195.651 570.622 188.8 565.665 180.27C565.665 181.504 565.755 182.744 565.79 183.978C566.116 196.743 566.524 212.624 560.128 226.809C555.798 236.424 548.82 244.234 541.925 251.23C537.441 255.786 532.792 260.19 528.024 264.456C523.337 270.717 517.218 275.778 510.174 279.221C502.344 285.222 494.236 290.841 485.852 296.08L480.759 299.347C476.053 302.249 471.231 305.226 466.498 308.307C467.329 308.225 468.154 308.135 468.999 308.101C479.475 307.612 489.836 310.449 498.585 316.202C507.334 321.955 514.018 330.325 517.672 340.103L486.78 365.117L520.735 357.28C520.725 365.595 518.597 373.772 514.549 381.047C510.501 388.322 504.665 394.458 497.586 398.881C490.507 403.304 482.417 405.87 474.071 406.339C465.725 406.809 457.395 405.166 449.86 401.565C450.622 402.516 451.391 403.46 452.154 404.405C453.671 406.286 455.182 408.154 456.658 410.008C476.753 435.325 482.352 459.366 472.395 477.694L460.296 471.187C469.997 453.349 455.445 430.521 445.862 418.486C444.414 416.667 442.931 414.833 441.434 412.972C428.594 397.119 414.042 379.115 414.409 357.052C414.929 323.83 447.421 303.793 473.503 287.719Z" fill="#EDF7F3"/>
<path d="M315.637 485C489.958 485 631.273 478.52 631.273 470.525C631.273 462.531 489.958 456.051 315.637 456.051C141.315 456.051 0 462.531 0 470.525C0 478.52 141.315 485 315.637 485Z" fill="#E0DFF0"/>
<path d="M570.633 465.129C572.712 461.331 570.356 456.678 567.668 453.287C564.979 449.896 561.701 446.394 561.771 442.059C561.868 435.856 568.485 432.196 573.779 428.908C577.7 426.465 581.317 423.571 584.555 420.285C585.914 419.021 587.038 417.527 587.874 415.874C588.962 413.448 588.934 410.691 588.865 408.03C588.634 399.18 588.195 390.339 587.548 381.507" stroke="#3F3D56" stroke-width="4" stroke-miterlimit="10"/>
<path d="M597.603 381.038C597.526 379.419 597.041 377.845 596.194 376.46C595.346 375.075 594.163 373.924 592.752 373.112L590.577 377.399L590.639 372.216C589.151 371.772 587.577 371.691 586.051 371.978C584.524 372.266 583.089 372.913 581.867 373.867C580.645 374.821 579.67 376.053 579.026 377.459C578.382 378.865 578.087 380.405 578.166 381.948C578.287 384.508 579.425 386.914 581.331 388.638C582.274 389.492 583.377 390.153 584.577 390.583C585.777 391.012 587.05 391.203 588.324 391.143C589.598 391.083 590.848 390.775 592.002 390.234C593.156 389.694 594.192 388.933 595.05 387.995C595.909 387.057 596.573 385.959 597.005 384.766C597.437 383.572 597.629 382.306 597.568 381.038H597.603Z" fill="#57B793"/>
<path d="M580.258 446.518C579.24 448.486 577.573 450.046 575.536 450.936C573.499 451.826 571.216 451.993 569.071 451.409C566.925 450.824 565.046 449.524 563.749 447.725C562.453 445.927 561.817 443.74 561.949 441.531C562.081 439.321 562.972 437.224 564.473 435.591C565.974 433.958 567.994 432.887 570.194 432.559C572.394 432.23 574.641 432.665 576.558 433.788C578.475 434.912 579.945 436.656 580.723 438.73L574.653 443.644L581.332 442.1C581.333 443.637 580.965 445.152 580.258 446.518Z" fill="#57B793"/>
<path d="M575.456 427.708C574.18 427.77 572.905 427.579 571.703 427.149C570.501 426.718 569.396 426.056 568.452 425.2C567.509 424.344 566.744 423.31 566.203 422.159C565.661 421.008 565.354 419.762 565.298 418.493C565.22 416.979 565.508 415.469 566.136 414.089C566.718 412.796 567.579 411.645 568.656 410.719C569.734 409.792 571.002 409.112 572.373 408.726L572.324 412.717L574.528 408.375C577.105 408.255 579.625 409.158 581.533 410.887C583.44 412.615 584.58 415.026 584.7 417.59C584.821 420.154 583.912 422.66 582.175 424.558C580.437 426.455 578.013 427.589 575.436 427.708H575.456Z" fill="#57B793"/>
<path d="M599.065 412.055C596.492 412.176 593.976 411.275 592.071 409.551C590.166 407.826 589.028 405.42 588.907 402.861C588.785 400.301 589.691 397.799 591.425 395.904C593.158 394.009 595.577 392.877 598.15 392.756C599.969 392.667 601.776 393.092 603.361 393.983L601.643 398.67L605.177 395.292C607.073 397.017 608.205 399.419 608.323 401.971C608.367 402.866 608.283 403.761 608.073 404.632C607.588 406.676 606.446 408.506 604.821 409.846C603.195 411.186 601.174 411.962 599.065 412.055Z" fill="#57B793"/>
<path opacity="0.1" d="M596.293 383.589C594.048 383.837 591.865 384.533 589.613 384.671C587.361 384.809 584.887 384.271 583.46 382.527C582.691 381.59 582.31 380.404 581.658 379.384C581.045 378.431 580.205 377.643 579.212 377.089C578.625 378.309 578.303 379.638 578.266 380.99C578.229 382.342 578.478 383.687 578.997 384.937C579.516 386.187 580.293 387.314 581.279 388.246C582.264 389.178 583.435 389.894 584.716 390.346C585.998 390.799 587.36 390.979 588.716 390.874C590.072 390.769 591.39 390.382 592.585 389.738C593.781 389.093 594.827 388.206 595.655 387.134C596.484 386.061 597.077 384.828 597.395 383.513C597.021 383.527 596.653 383.554 596.293 383.589Z" fill="black"/>
<path opacity="0.1" d="M599.065 412.055C597.388 412.14 595.717 411.79 594.217 411.04C592.716 410.29 591.437 409.165 590.505 407.775C589.572 406.386 589.018 404.78 588.897 403.113C588.776 401.447 589.092 399.778 589.814 398.27C590.586 398.789 591.25 399.451 591.768 400.221C592.461 401.261 592.877 402.461 593.695 403.419C595.205 405.19 597.797 405.769 600.146 405.659C602.495 405.549 604.754 404.894 607.076 404.68C607.394 404.68 607.727 404.625 608.053 404.618C607.571 406.661 606.433 408.493 604.812 409.835C603.19 411.177 601.172 411.956 599.065 412.055Z" fill="black"/>
<path opacity="0.1" d="M575.456 427.708C574.18 427.77 572.905 427.579 571.703 427.149C570.501 426.718 569.396 426.056 568.452 425.2C567.509 424.344 566.744 423.31 566.203 422.159C565.661 421.008 565.354 419.762 565.298 418.493C565.22 416.979 565.508 415.469 566.136 414.089C566.943 414.613 567.647 415.279 568.215 416.053C568.97 417.114 569.442 418.334 570.294 419.313C571.936 421.133 574.694 421.774 577.182 421.712C579.669 421.65 581.908 421.071 584.305 420.892C583.714 422.795 582.547 424.47 580.963 425.69C579.38 426.91 577.457 427.615 575.456 427.708Z" fill="black"/>
<path opacity="0.1" d="M580.258 446.518C579.735 447.677 578.988 448.721 578.059 449.592C577.13 450.463 576.037 451.143 574.844 451.594C573.651 452.045 572.38 452.257 571.104 452.22C569.828 452.182 568.572 451.895 567.408 451.374C566.243 450.854 565.194 450.11 564.318 449.186C563.443 448.262 562.759 447.176 562.305 445.989C561.852 444.802 561.638 443.538 561.676 442.269C561.714 440.999 562.003 439.75 562.526 438.592C563.324 439.12 564.043 439.758 564.66 440.487C565.582 441.611 566.192 442.879 567.266 443.934C569.254 445.871 572.463 446.691 575.318 446.746C576.968 446.767 578.617 446.691 580.258 446.518Z" fill="black"/>
<path d="M555.971 460.752C555.971 460.752 563.642 460.517 565.956 458.877C568.271 457.237 577.736 455.279 578.339 457.912C578.942 460.545 589.877 471.008 581.208 471.049C572.539 471.091 561.071 469.671 558.763 468.292C556.456 466.914 555.971 460.752 555.971 460.752Z" fill="#656380"/>
<path opacity="0.2" d="M581.36 470.133C572.698 470.202 561.223 468.754 558.916 467.376C557.163 466.314 556.456 462.489 556.227 460.724H555.971C555.971 460.724 556.456 466.879 558.743 468.306C561.029 469.733 572.518 471.118 581.187 471.063C583.688 471.063 584.555 470.153 584.506 468.844C584.18 469.623 583.224 470.119 581.36 470.133Z" fill="black"/>
<path d="M134.715 443.865C129.685 434.601 135.408 423.256 141.95 414.998C148.491 406.741 156.502 398.153 156.328 387.628C156.079 372.505 139.947 363.579 127.058 355.563C117.494 349.614 108.672 342.56 100.775 334.548C97.6082 331.329 94.5385 327.896 92.6952 323.788C90.0343 317.874 90.1036 311.154 90.2768 304.675C90.8312 283.078 91.903 261.523 93.4921 240.008" stroke="#3F3D56" stroke-width="4" stroke-miterlimit="10"/>
<path d="M68.9826 238.83C69.1724 234.884 70.3556 231.049 72.4236 227.677C74.4916 224.305 77.3781 221.504 80.8181 219.53L86.1261 229.973L85.9667 217.332C90.7889 215.918 95.9379 216.066 100.67 217.753C105.403 219.44 109.473 222.58 112.295 226.718C115.116 230.857 116.542 235.781 116.367 240.778C116.192 245.775 114.425 250.588 111.321 254.521C108.216 258.454 103.936 261.304 99.0966 262.66C94.2577 264.015 89.1108 263.806 84.3993 262.062C79.6878 260.318 75.6554 257.13 72.8843 252.958C70.1132 248.785 68.7469 243.845 68.9826 238.85V238.83Z" fill="#57B793"/>
<path d="M111.266 398.435C113.65 403.056 117.501 406.765 122.222 408.985C126.943 411.205 132.268 411.812 137.371 410.712C142.474 409.611 147.069 406.866 150.442 402.901C153.815 398.936 155.777 393.974 156.023 388.786C156.189 385.524 155.663 382.265 154.478 379.219C152.747 374.751 149.69 370.914 145.713 368.216C141.737 365.519 137.029 364.088 132.215 364.116C127.402 364.144 122.711 365.628 118.766 368.371C114.821 371.114 111.809 374.987 110.13 379.474L124.938 391.453L108.647 387.683C108.64 391.424 109.539 395.112 111.266 398.435Z" fill="#57B793"/>
<path d="M122.97 352.655C128.783 352.919 134.492 351.048 139.008 347.397C143.524 343.746 146.533 338.571 147.462 332.857C148.39 327.142 147.174 321.287 144.044 316.407C140.914 311.527 136.09 307.962 130.488 306.391L130.613 316.103L125.277 305.537H125.215C118.933 305.245 112.791 307.448 108.141 311.66C103.492 315.873 100.715 321.75 100.422 328C100.128 334.249 102.343 340.358 106.578 344.983C110.813 349.608 116.722 352.37 123.005 352.661L122.97 352.655Z" fill="#57B793"/>
<path d="M65.4141 314.559C69.0848 314.737 72.7468 314.064 76.111 312.593C79.4753 311.121 82.4498 308.893 84.7997 306.082C87.1495 303.271 88.8105 299.956 89.6514 296.398C90.4924 292.839 90.4903 289.135 89.6453 285.577C88.8004 282.02 87.1357 278.706 84.7826 275.898C82.4296 273.09 79.4526 270.865 76.0866 269.398C72.7207 267.93 69.0579 267.261 65.3875 267.443C61.717 267.625 58.1393 268.653 54.9368 270.446L59.0944 281.867L50.5088 273.617C48.2137 275.694 46.353 278.202 45.0331 280.995C43.7133 283.789 42.9603 286.814 42.8171 289.897C42.7071 292.079 42.9101 294.265 43.42 296.39C44.5986 301.387 47.3841 305.865 51.3535 309.144C55.323 312.423 60.2596 314.324 65.4141 314.559Z" fill="#57B793"/>
<path opacity="0.1" d="M72.1702 245.116C77.6445 245.715 82.9663 247.404 88.4545 247.742C93.9426 248.08 99.9781 246.777 103.45 242.531C105.321 240.243 106.256 237.348 107.836 234.853C109.333 232.528 111.385 230.607 113.809 229.263C115.319 232.252 116.172 235.526 116.312 238.867C116.452 242.209 115.876 245.543 114.622 248.646C113.368 251.75 111.465 254.553 109.039 256.869C106.613 259.185 103.719 260.961 100.55 262.079C97.3809 263.198 94.0089 263.633 90.6578 263.356C87.3066 263.08 84.053 262.097 81.1128 260.474C78.1726 258.851 75.6131 256.624 73.6042 253.942C71.5953 251.259 70.1829 248.183 69.4608 244.916C70.3824 244.957 71.2833 245.019 72.1702 245.116Z" fill="black"/>
<path opacity="0.1" d="M65.414 314.559C69.4998 314.746 73.565 313.88 77.215 312.044C80.8649 310.208 83.9756 307.464 86.2453 304.079C88.5149 300.695 89.8664 296.784 90.1684 292.727C90.4705 288.669 89.713 284.603 87.9694 280.923C86.0868 282.182 84.4678 283.793 83.2019 285.665C81.5111 288.202 80.4925 291.131 78.5037 293.461C74.8103 297.775 68.5045 299.188 62.7808 298.933C57.0571 298.678 51.5343 297.052 45.8383 296.535C45.0483 296.466 44.2445 296.411 43.4476 296.39C44.6249 301.382 47.4062 305.857 51.3701 309.136C55.334 312.414 60.2644 314.318 65.414 314.559Z" fill="black"/>
<path opacity="0.1" d="M122.97 352.655C127.016 352.844 131.043 351.998 134.667 350.199C138.292 348.4 141.392 345.707 143.673 342.378C145.953 339.048 147.338 335.193 147.695 331.18C148.052 327.166 147.37 323.129 145.712 319.453C143.76 320.743 142.062 322.378 140.702 324.278C138.859 326.862 137.709 329.84 135.554 332.225C131.556 336.657 124.834 338.221 118.771 338.077C112.901 337.953 107.247 336.519 101.412 336.071C102.857 340.704 105.701 344.781 109.559 347.748C113.416 350.716 118.099 352.429 122.97 352.655Z" fill="black"/>
<path opacity="0.1" d="M111.266 398.435C113.65 403.056 117.501 406.765 122.222 408.985C126.943 411.205 132.268 411.812 137.371 410.712C142.474 409.611 147.069 406.866 150.442 402.901C153.815 398.936 155.777 393.974 156.024 388.786C156.189 385.524 155.663 382.265 154.478 379.219C152.527 380.493 150.776 382.047 149.281 383.83C147.029 386.587 145.539 389.661 142.934 392.211C138.083 396.94 130.26 398.897 123.296 399.104C119.276 399.118 115.259 398.895 111.266 398.435Z" fill="black"/>
<path d="M298.812 457.636L207.343 476.246L205.264 476.04L124.883 467.975V366.654L223.281 350.111L294.654 358.382L294.675 358.83L294.682 359.051L298.812 457.636Z" fill="#F2F2F2"/>
<path opacity="0.1" d="M298.812 457.636L207.343 476.246L205.264 476.04V372.168L294.675 358.83L298.812 457.636Z" fill="black"/>
<path opacity="0.05" d="M294.682 359.051L294.654 359.072L205.264 372.168L124.883 366.654L223.281 350.111L294.654 358.382L294.675 358.83L294.682 359.051Z" fill="black"/>
<path d="M399.289 461.772L307.82 480.382L305.741 480.175L225.36 472.111V370.789L323.758 354.247L395.131 362.518L395.152 362.966L395.159 363.187L399.289 461.772Z" fill="#B3D6C8"/>
<path opacity="0.1" d="M399.289 461.772L307.82 480.382L305.741 480.175V376.303L395.152 362.966L399.289 461.772Z" fill="black"/>
<path opacity="0.05" d="M395.159 363.186L395.131 363.207L305.741 376.303L225.36 370.789L323.758 354.247L395.131 362.518L395.152 362.966L395.159 363.186Z" fill="black"/>
<path d="M336.231 362.518L244.762 381.128L242.683 380.921L162.302 372.857V271.535L260.7 254.993L332.073 263.264L332.094 263.712L332.101 263.933L336.231 362.518Z" fill="#B3D6C9"/>
<path opacity="0.1" d="M336.231 362.518L244.762 381.128L242.683 380.921V277.049L332.094 263.712L336.231 362.518Z" fill="black"/>
<path opacity="0.05" d="M332.101 263.933L332.073 263.953L242.683 277.049L162.302 271.535L260.7 254.993L332.073 263.264L332.094 263.712L332.101 263.933Z" fill="black"/>
<path d="M388.202 366.764L340.465 376.482L339.377 376.372L297.426 372.161V319.281L348.78 310.644L386.033 314.966L386.047 315.2V315.31L388.202 366.764Z" fill="#B3D6C8"/>
<path opacity="0.1" d="M388.202 366.764L340.465 376.482L339.377 376.372V322.162L386.047 315.2L388.202 366.764Z" fill="black"/>
<path opacity="0.05" d="M386.047 315.31L386.033 315.324L339.377 322.162L297.426 319.281L348.78 310.644L386.033 314.966L386.047 315.2V315.31Z" fill="black"/>
<path d="M260.007 264.064L212.27 273.775L211.182 273.672L169.231 269.461V216.58L220.585 207.944L257.838 212.265L257.852 212.5V212.61L260.007 264.064Z" fill="#F2F2F2"/>
<path opacity="0.1" d="M260.007 264.064L212.27 273.775L211.182 273.672V219.461L257.852 212.5L260.007 264.064Z" fill="black"/>
<path opacity="0.05" d="M257.852 212.61L257.838 212.624L211.182 219.461L169.231 216.58L220.585 207.944L257.838 212.265L257.852 212.5V212.61Z" fill="black"/>
<path d="M343.853 261.996L296.116 271.708L295.028 271.604L253.077 267.393V214.512L304.432 205.876L341.684 210.198L341.698 210.432V210.542L343.853 261.996Z" fill="#E5E5E5"/>
<path opacity="0.1" d="M343.853 261.996L296.116 271.708L295.028 271.604V217.394L341.698 210.432L343.853 261.996Z" fill="#E5E5E5"/>
<path opacity="0.05" d="M341.698 210.542L341.684 210.556L295.028 217.394L253.077 214.512L304.432 205.876L341.684 210.198L341.698 210.432V210.542Z" fill="black"/>
<path d="M368.799 208.923L321.062 218.634L319.974 218.531L278.023 214.319V161.439L329.378 152.803L366.63 157.124L366.644 157.359V157.469L368.799 208.923Z" fill="#B3D6C8"/>
<path opacity="0.1" d="M368.799 208.923L321.062 218.634L319.974 218.531V164.32L366.644 157.359L368.799 208.923Z" fill="black"/>
<path opacity="0.05" d="M366.644 157.469L366.63 157.483L319.974 164.32L278.023 161.439L329.378 152.803L366.63 157.124L366.644 157.359V157.469Z" fill="black"/>
<path d="M401.312 100.819C400.806 105.299 397.369 108.91 396.094 113.225C394.182 119.739 397.48 126.735 402.026 131.835C405.69 135.888 410.125 139.177 415.076 141.513C420.026 143.849 425.393 145.184 430.866 145.441C432.474 145.579 434.094 145.403 435.634 144.924C437.005 144.369 438.241 143.528 439.258 142.457C442.667 139.045 444.503 134.324 445.231 129.561C445.959 124.798 445.681 119.952 445.397 115.148C445.397 114.154 445.214 113.168 444.857 112.24C444.393 111.356 443.754 110.576 442.979 109.944C440.521 107.698 437.813 105.739 434.906 104.106C433.659 103.417 432.322 102.728 431.525 101.535C430.978 100.586 430.622 99.5393 430.478 98.4544L429.584 93.9328C429.426 92.6291 428.979 91.3766 428.275 90.2659C426.702 88.1568 423.687 87.8673 421.047 87.7639L411.346 87.3848C408.332 87.2676 404.368 86.406 401.423 86.9988C398.651 87.5433 399.587 90.066 400.086 92.3544C400.808 95.1221 401.219 97.9607 401.312 100.819Z" fill="#F7B7BD"/>
<path d="M462.922 302.607L458.806 347.492C457.732 359.265 456.637 371.085 454.53 382.706C453.838 386.711 452.951 390.695 451.939 394.644C449.125 405.611 445.044 416.329 443.727 427.571C443.686 427.895 443.651 428.26 443.617 428.556C443.346 431.038 443.111 433.546 442.231 435.862C441.538 437.579 440.561 439.143 439.847 440.839C438.461 444.23 438.239 447.98 438.066 451.653C433.071 448.849 427.601 446.98 421.927 446.139C419.156 445.733 416.141 445.45 414.305 443.382C412.226 441.135 412.469 437.696 412.815 434.677C413.905 425.303 414.991 415.933 416.072 406.569C416.432 402.539 417.128 398.546 418.151 394.631C418.525 393.328 418.976 392.046 419.433 390.764C420.063 388.999 420.701 387.235 421.179 385.422C421.842 382.51 422.301 379.555 422.551 376.579C423.667 367.15 425.011 357.741 426.189 348.319L426.251 347.823C428.018 333.541 429.363 319.191 428.975 304.806C428.919 302.676 428.829 300.546 428.691 298.41C428.497 295.315 428.212 293.674 430.769 291.738C433.617 289.601 437.366 288.105 440.623 286.706C442.376 285.948 461.682 279.124 462.104 280.627C463.001 283.818 463.467 287.114 463.49 290.428C463.529 294.495 463.34 298.561 462.922 302.607Z" fill="#8DA5D6"/>
<path opacity="0.1" d="M454.531 382.706C453.838 386.711 452.951 390.695 451.939 394.644C449.126 405.611 445.044 416.329 443.727 427.571C443.686 427.895 443.651 428.26 443.617 428.556C435.01 416.329 427.762 403.178 419.364 390.819C419.994 389.055 420.632 387.29 421.11 385.477C421.799 382.548 422.28 379.575 422.551 376.579C423.667 367.15 425.011 357.741 426.189 348.319L426.251 347.823C426.738 349.822 427.434 351.765 428.33 353.619C433.971 365.02 447.372 370.782 453.928 381.693C454.145 382.033 454.346 382.371 454.531 382.706Z" fill="black"/>
<path d="M384.695 282.474C384.98 291.613 386.449 300.677 387.918 309.707L390.946 328.317C392.602 338.518 394.334 348.919 399.185 358.051C402.816 364.889 408.041 370.72 412.774 376.848C424.401 391.915 433.139 408.988 444.164 424.496C447.372 429.004 451.953 433.884 457.42 432.94C461.009 432.326 463.615 429.349 466.428 427.06C469.754 424.359 473.76 422.38 476.379 418.989C478.998 415.598 479.511 409.974 475.963 407.561C474.751 406.741 473.275 406.431 471.903 405.907C466.407 403.839 462.846 398.49 460.587 393.087C458.328 387.683 456.949 381.886 453.934 376.861C447.379 365.95 433.971 360.188 428.33 348.781C425.17 342.398 424.865 334.996 424.63 327.917L424.013 309.782C423.944 307.797 423.895 305.736 424.706 303.924C426.861 299.099 433.375 298.644 438.655 298.03C444.643 297.335 450.444 295.515 455.75 292.668C458.792 291.034 461.758 288.953 463.372 285.92C464.855 283.163 465.056 279.917 465.23 276.787L467.059 243.916C467.218 241.09 467.357 238.161 466.366 235.514C463.851 228.856 455.397 226.678 448.252 226.995C434.962 227.588 422.697 233.274 410.14 237.12C407.029 238.071 403.904 238.926 400.696 239.567C397.924 240.125 394.459 239.898 391.798 240.794C387.031 242.393 387.148 252.773 386.476 257.074C385.089 265.467 384.493 273.971 384.695 282.474Z" fill="#97ADDA"/>
<path d="M455.618 434.332C456.79 435.511 457.171 437.234 457.476 438.861C459.169 447.888 460.051 457.048 460.109 466.231C460.033 467.088 460.203 467.949 460.601 468.713C460.933 469.165 461.38 469.522 461.897 469.747C465.285 471.353 469.214 469.112 472.041 466.652C477.273 462.096 481.701 455.975 481.999 449.062C482.075 447.283 481.874 445.485 482.186 443.727C482.643 441.121 484.175 438.854 485.519 436.579C487.819 432.702 489.678 428.583 491.063 424.297C491.575 422.684 491.922 420.657 490.647 419.534C490.2 419.181 489.69 418.916 489.143 418.755L473.829 413.103C472.499 412.614 469.2 421.043 468.68 421.967C467.399 424.221 466.123 425.496 463.553 426.02C460.982 426.544 457.808 425.785 455.355 427.088C451.197 429.287 453.269 431.982 455.618 434.332Z" fill="#535070"/>
<path d="M432.003 439.536C431.719 438.973 431.323 438.474 430.839 438.068C430.131 437.62 429.325 437.348 428.49 437.275C425.579 436.779 422.128 436.455 420.112 438.613C418.227 440.632 418.553 443.92 416.98 446.195C416.481 446.884 415.802 447.504 415.372 448.262C414.838 449.423 414.6 450.697 414.679 451.97C414.596 455.479 414.513 459.001 414.762 462.502C414.963 465.439 415.455 468.52 417.305 470.822C420.271 474.516 425.621 475.047 430.361 475.281L434.206 475.481C435.264 475.604 436.336 475.506 437.352 475.192C437.983 474.904 438.548 474.492 439.015 473.982C439.481 473.471 439.84 472.872 440.069 472.221C442.071 467.272 438.905 461.944 436.95 456.981C434.698 451.267 435.1 444.933 432.003 439.536Z" fill="#535070"/>
<path d="M400.204 75.557C400.154 75.0553 400.228 74.5492 400.418 74.082C400.98 73.0964 402.449 73.3927 403.557 73.6409C408.013 74.7575 412.711 73.7443 417.305 74.0062C421.9 74.2681 427.069 76.5496 427.991 81.0298C431.324 78.6835 434.196 75.7493 436.465 72.3726C437.74 70.4772 438.849 68.306 438.676 66.0314C438.426 62.7505 435.662 60.2967 433.132 58.2152L425.51 52.0118C424.506 51.0956 423.347 50.363 422.087 49.8475C420.327 49.2479 418.4 49.5373 416.543 49.5373C411 49.5373 405.054 47.0215 400.113 49.5373C398.035 50.5919 396.489 52.4047 394.993 54.1692L388.181 62.1922C387.665 62.7036 387.289 63.3368 387.086 64.0325C386.892 65.0113 387.398 65.9763 387.578 66.9619C387.897 68.754 387.121 70.6702 387.717 72.3933C388.708 75.2469 392.2 75.6535 394.334 77.294C395.124 77.9005 396.372 79.9752 397.321 79.9476C398.991 79.9132 400.155 76.8804 400.204 75.557Z" fill="#3F3D56"/>
<path d="M411.762 99.2194C423.817 99.2194 433.59 89.4987 433.59 77.5076C433.59 65.5165 423.817 55.7958 411.762 55.7958C399.707 55.7958 389.934 65.5165 389.934 77.5076C389.934 89.4987 399.707 99.2194 411.762 99.2194Z" fill="#FFC0C6"/>
<path d="M416.876 125.019C416.136 122.914 414.744 121.098 412.899 119.832C411.055 118.566 408.854 117.915 406.613 117.974C405.971 118.096 405.306 118.012 404.715 117.733C404.38 117.479 404.111 117.148 403.932 116.768C402.608 114.392 401.542 111.883 400.751 109.283C400.404 108.132 399.926 106.774 398.755 106.477C397.813 106.236 396.85 106.843 396.219 107.58C395.66 108.372 395.054 109.129 394.404 109.848C391.632 112.288 386.781 110.062 383.878 112.302C383.4 112.667 383.005 113.136 382.492 113.473C381.993 113.776 381.454 114.008 380.891 114.163C375.255 115.986 369.73 118.134 364.344 120.593C366.284 132.201 368.266 144.028 372.811 154.884C374.973 160.054 377.42 165.12 379.152 170.448C382.991 182.255 383.157 194.889 383.206 207.303C383.206 215.795 383.206 224.465 380.434 232.502C379.81 234.322 379.048 236.128 378.875 238.016C378.701 239.905 379.27 242.042 380.829 243.172C381.731 243.764 382.767 244.126 383.843 244.227C388.631 244.916 393.454 243.661 398.166 242.572C410.799 239.664 423.687 237.996 436.542 236.369L458.092 233.612C459.638 233.504 461.151 233.114 462.555 232.461C466.498 230.317 466.872 224.417 464.419 220.668C463.248 218.869 461.592 217.394 460.601 215.491C459.61 213.589 459.534 210.915 461.231 209.598C464.696 206.91 463.657 201.927 463.823 197.57C464.285 185.384 464.222 173.207 463.636 161.039C463.459 158.516 463.418 155.985 463.511 153.458C463.754 149.17 464.821 144.973 465.888 140.803L472.436 115.162C470.725 112.474 467.447 110.765 464.35 109.993C461.252 109.221 458.016 108.993 454.96 108.049C448.724 106.119 443.125 101.225 436.59 101.68C436.095 101.689 435.607 101.807 435.163 102.025C433.694 102.859 433.922 104.968 433.832 106.65C433.624 110.379 430.866 113.487 427.831 115.672C424.796 117.857 421.318 119.442 418.525 121.931C418.04 122.294 417.641 122.759 417.356 123.293C417.071 123.826 416.907 124.415 416.876 125.019Z" fill="#009C88"/>
<path d="M330.389 149.343C328.944 150.278 327.407 151.065 325.802 151.693C324.278 152.293 322.649 152.768 321.402 153.816C320.784 154.349 320.266 154.986 319.87 155.698C319.132 157.001 318.759 158.478 318.789 159.973C318.82 161.469 319.254 162.929 320.045 164.201C320.836 165.474 321.957 166.511 323.288 167.206C324.62 167.901 326.115 168.228 327.618 168.153C329.62 168.049 331.512 167.243 333.348 166.45L348.745 159.785C351.351 158.661 354.164 157.352 355.398 154.802C355.539 154.563 355.593 154.283 355.55 154.009C355.431 153.709 355.204 153.463 354.913 153.32C351.443 151.074 348.408 148.226 345.953 144.911C345.322 144.056 344.567 142.043 343.652 141.526C340.396 139.727 333.002 147.661 330.389 149.343Z" fill="#FFC0C6"/>
<path d="M494.978 143.932L500.653 150.383C501.872 151.762 503.092 153.14 504.201 154.629C506.929 158.367 509.117 162.467 510.701 166.809C511.934 170.027 512.96 173.46 512.53 176.879C512.242 178.631 511.766 180.348 511.109 182C510.07 185.175 508.779 188.263 507.25 191.236C505.973 193.492 504.53 195.65 502.933 197.694C498.537 203.488 493.727 208.959 488.54 214.064C486.6 215.974 485.768 219.068 484.944 221.646C483.385 226.409 479.677 230.124 476.095 233.64C474.943 234.851 473.668 235.941 472.291 236.893C470.228 238.217 467.815 238.898 465.361 238.85C464.29 238.856 463.23 238.638 462.25 238.209C459.797 237.051 458.55 234.232 458.293 231.544C458.067 229.102 458.477 226.642 459.485 224.403C462.742 217.228 471.106 214.12 477.016 208.881C480.481 205.814 483.135 201.954 485.755 198.142C487.529 195.76 489.01 193.175 490.169 190.443C491.485 186.935 490.972 182.786 492.13 179.229C492.615 177.72 493.516 176.362 494.008 174.866C494.499 173.37 494.666 171.599 493.744 170.31C493.054 169.486 492.171 168.842 491.173 168.435C487.397 166.533 483.17 164.079 482.449 159.923C482.161 157.621 482.765 155.297 484.14 153.423C485.507 151.573 487.107 149.906 488.901 148.46C490.543 146.985 493.322 145.352 494.978 143.932Z" fill="#FFC0C6"/>
<path d="M326.744 158.344C325.747 156.332 324.492 154.278 322.469 153.278C321.484 152.856 320.423 152.638 319.351 152.638C318.278 152.638 317.217 152.856 316.232 153.278C314.272 154.122 312.435 155.225 310.772 156.559L305.88 160.15C304.771 160.874 303.79 161.776 302.976 162.818C302.201 164.082 301.687 165.488 301.466 166.953C300.773 170.31 300.212 173.763 300.697 177.161C301.473 182.675 304.799 187.445 308.458 191.636C310.744 194.241 313.572 196.874 317.05 196.991C318.554 197.04 320.224 196.447 320.847 195.089C321.065 194.549 321.18 193.975 321.187 193.393C321.561 187.273 319.358 181.297 316.794 175.721C316.101 174.204 315.352 172.633 315.408 170.972C315.387 170.69 315.46 170.409 315.616 170.172C315.836 169.943 316.13 169.799 316.447 169.766C319.961 169.076 326.017 171.792 328.477 167.911C330.071 165.347 327.881 160.626 326.744 158.344Z" fill="#FFC0C6"/>
<path d="M399.053 68.7264C399.01 68.2243 399.086 67.719 399.275 67.2514C399.836 66.2589 401.305 66.5621 402.414 66.8103C406.87 67.9269 411.568 66.9137 416.162 67.1756C420.756 67.4375 425.919 69.719 426.847 74.1992C430.177 71.8491 433.049 68.9156 435.322 65.542C436.597 63.6397 437.706 61.4685 437.532 59.1939C437.283 55.913 434.511 53.4592 431.989 51.3846L424.367 45.1812C423.365 44.2652 422.208 43.5325 420.95 43.0169C419.183 42.4173 417.264 42.7067 415.407 42.7067C409.863 42.7067 403.918 40.1909 398.977 42.7067C396.898 43.7613 395.353 45.5741 393.856 47.3386L387.038 55.3616C386.525 55.8742 386.151 56.5072 385.95 57.202C385.756 58.1807 386.262 59.1457 386.442 60.1313C386.76 61.9234 385.984 63.8396 386.58 65.5558C387.571 68.4163 391.064 68.8229 393.198 70.4634C393.988 71.0699 395.235 73.1446 396.185 73.117C397.827 73.0826 398.991 70.0498 399.053 68.7264Z" fill="#3F3D56"/>
<path d="M352.695 128.224C351.815 128.792 351.042 129.508 350.409 130.34C349.612 131.546 349.445 133.097 348.759 134.337C347.29 137.053 343.846 138.025 341.705 140.251C341.358 140.556 341.116 140.961 341.012 141.409C340.999 142.015 341.203 142.607 341.587 143.077L351.94 159.261C355.405 159.564 358.689 157.414 362.14 157.703C363.422 157.807 364.746 158.248 365.979 157.869C366.861 157.478 367.687 156.975 368.439 156.373C370.518 155.077 373.234 154.926 374.96 153.223C376.685 151.521 376.831 149.019 376.81 146.696C376.841 144.68 376.634 142.667 376.193 140.699C374.669 134.496 369.894 129.712 366.901 124.212C365.439 121.531 364.649 119.966 361.565 121.807C358.481 123.647 355.613 126.101 352.695 128.224Z" fill="#06AE98"/>
<path d="M478.402 120.042C480.348 121.299 482.103 122.826 483.613 124.577C485.186 126.597 486.08 129.078 487.598 131.146C489.115 133.214 491.063 134.703 492.726 136.55C495.255 139.348 496.966 142.753 498.643 146.138C494.538 151.45 490.065 156.471 485.256 161.164C484.719 161.791 484.012 162.251 483.218 162.487C482.681 162.544 482.137 162.468 481.636 162.265C481.135 162.061 480.693 161.737 480.35 161.322C479.601 160.55 479.075 159.585 478.361 158.779C476.679 157.054 474.438 155.977 472.034 155.739C469.651 155.508 467.252 155.473 464.862 155.636C464.338 155.697 463.807 155.609 463.331 155.381C462.977 155.139 462.691 154.812 462.499 154.429C459.728 149.687 460.594 143.732 461.585 138.314L463.851 125.908C464.181 123.539 464.817 121.222 465.742 119.015C466.602 117.189 468.514 114.087 470.884 114.638C473.254 115.19 476.4 118.608 478.402 120.042Z" fill="#06AE98"/>
<path d="M280.795 210.99L233.058 220.702L231.97 220.599L190.019 216.387V163.507L241.374 154.871L278.626 159.192L278.64 159.427V159.537L280.795 210.99Z" fill="#E5E5E5"/>
<path opacity="0.1" d="M280.795 210.99L233.058 220.702L231.97 220.599V166.388L278.64 159.427L280.795 210.99Z" fill="black"/>
<path opacity="0.05" d="M278.64 159.537L278.626 159.551L231.97 166.388L190.019 163.507L241.374 154.871L278.626 159.192L278.64 159.427V159.537Z" fill="black"/>
<path d="M305.741 158.606L258.004 168.325L256.916 168.215L214.965 164.003V111.123L266.32 102.487L303.572 106.808L303.586 107.043V107.153L305.741 158.606Z" fill="#B3D6C8"/>
<path opacity="0.1" d="M305.741 158.606L258.004 168.325L256.916 168.215V114.004L303.586 107.043L305.741 158.606Z" fill="#31473E"/>
<path opacity="0.05" d="M303.586 107.153L303.572 107.167L256.916 114.004L214.965 111.123L266.32 102.487L303.572 106.808L303.586 107.043V107.153Z" fill="#B7B7B7"/>
</g>
<defs>
<clipPath id="clip0">
<rect width="658" height="485" fill="white"/>
</clipPath>
</defs>
</svg>
