<svg width="102" height="102" viewBox="0 0 102 102" fill="none" xmlns="http://www.w3.org/2000/svg">
<g clip-path="url(#clip0)">
<path d="M23.2996 60.6263C25.159 61.9041 27.7285 61.7174 29.3784 60.0674C29.9961 59.4517 30.4237 58.6954 30.6323 57.8693C32.1872 58.2869 33.9127 57.9337 35.1399 56.7912C35.8197 56.158 36.2893 55.3644 36.5131 54.4897C38.064 54.9163 39.7717 54.5558 41.0208 53.3928C41.9792 52.5016 42.5198 51.291 42.5437 49.9841C42.5674 48.6754 42.0709 47.4451 41.1458 46.5198L35.6264 41.0004C36.0518 40.6844 36.434 40.3059 36.7557 39.8697C38.327 37.7408 38.0746 34.6963 36.168 32.7869L24.56 21.1813C20.9303 17.55 15.8141 16.0623 10.9799 16.8935C14.5736 13.5767 18.998 11.4222 23.8386 10.6443C24.6535 10.5132 25.2078 9.74653 25.0769 8.93161C24.9458 8.11688 24.1789 7.56258 23.3641 7.69329C17.5643 8.62576 12.2972 11.3198 8.1327 15.4842C6.84775 16.7692 5.71702 18.1506 4.73653 19.6039C4.73553 19.6055 4.73454 19.6069 4.73334 19.6085C-2.55771 30.4204 -1.42598 45.2615 8.1325 54.8202L25.1195 71.8072C25.4114 72.0989 25.794 72.2448 26.1763 72.2448C26.5589 72.2448 26.9412 72.0989 27.2331 71.8072C27.8167 71.2234 27.8167 70.2774 27.2331 69.6938L20.749 63.2097C21.2461 63.0021 21.7136 62.7118 22.123 62.3306C22.6443 61.8451 23.0418 61.2649 23.2996 60.6263ZM10.2459 52.7064C1.78927 44.25 0.721301 31.1602 7.04122 21.5328C11.9206 18.4811 18.3537 19.1998 22.4464 23.2947L34.0536 34.8997C34.9241 35.7714 35.052 37.1452 34.3504 38.0954C33.9316 38.6633 33.2886 39.0187 32.5861 39.0709C31.8855 39.1235 31.1979 38.8675 30.7008 38.3688L22.9023 30.5623C22.4532 30.1128 21.769 29.9964 21.1965 30.2722L20.4227 30.6448C17.01 32.2903 13.0621 32.3607 9.59119 30.8378C8.83564 30.5065 7.95377 30.85 7.62223 31.6057C7.29068 32.3615 7.63458 33.2431 8.39012 33.5747C12.5992 35.4215 17.3792 35.3643 21.5366 33.4243L28.5848 40.4796C29.6018 41.4999 30.9758 42.0664 32.4056 42.0664C32.4245 42.0664 32.4436 42.0644 32.4626 42.0642L39.0317 48.6334C39.3778 48.9795 39.5637 49.4399 39.5548 49.9299C39.546 50.4183 39.3436 50.8709 38.9843 51.2049C38.2901 51.8516 37.152 51.8066 36.4497 51.1053L26.3546 41.008C25.7709 40.4246 24.8248 40.4246 24.2412 41.008C23.6576 41.5918 23.6576 42.5378 24.2412 43.1214L33.1494 52.0294C33.4961 52.3767 33.6822 52.8379 33.6732 53.3281C33.6644 53.8164 33.4616 54.2697 33.1029 54.6038C32.4086 55.25 31.2723 55.2046 30.5693 54.5016L21.2595 45.1914C20.6759 44.6082 19.7299 44.6078 19.1461 45.1914C18.5625 45.7752 18.5625 46.7212 19.1461 47.3048L27.269 55.4277C27.6045 55.7645 27.789 56.212 27.789 56.6878C27.789 57.1672 27.6039 57.6157 27.2666 57.9522C26.5698 58.6489 25.4359 58.6488 24.7397 57.9528L16.1034 49.3144C15.5196 48.731 14.5736 48.731 13.99 49.3144C13.4064 49.8982 13.4064 50.8442 13.99 51.4278L20.1367 57.5744C20.4802 57.9195 20.6643 58.3784 20.6558 58.8663C20.647 59.3555 20.4446 59.8088 20.0861 60.1427C19.4615 60.7241 18.4712 60.7518 17.7579 60.2184L10.2459 52.7064Z" fill="#4DE6B8"/>
<path d="M93.8532 15.4843C83.0082 4.63965 65.3623 4.64005 54.5173 15.4843L50.993 19.0088L47.4685 15.4845C42.9653 10.9811 37.2453 8.2251 30.9266 7.51439C30.1069 7.42054 29.3669 8.0123 29.2746 8.83221C29.1824 9.65251 29.7726 10.3921 30.5927 10.4844C36.2311 11.1188 41.3361 13.5783 45.3553 17.5977L49.9366 22.1788C50.52 22.7622 51.4662 22.7622 52.0498 22.1788L56.6309 17.5977C66.3105 7.91766 82.0606 7.91806 91.7398 17.5977C92.1086 17.9665 92.4627 18.3457 92.8052 18.733L82.2891 29.2491C81.7055 29.8329 81.7055 30.7789 82.2891 31.3625C82.581 31.6542 82.9636 31.8 83.3459 31.8C83.7283 31.8 84.1108 31.6542 84.4027 31.3625L94.661 21.1042C97.4887 25.2069 99.0115 30.062 99.0115 35.1518C99.0115 41.7829 96.4291 48.0171 91.74 52.7062L62.0195 82.4269C61.3038 82.9796 60.3024 82.9589 59.6684 82.3685C59.3095 82.0344 59.1073 81.5809 59.0985 81.092C59.09 80.6024 59.2755 80.1426 59.6206 79.7971L65.6338 73.784C66.2174 73.2002 66.2174 72.2542 65.6338 71.6706C65.05 71.0872 64.104 71.0872 63.5204 71.6706L55.015 80.1778C54.3184 80.875 53.1847 80.8742 52.4863 80.1762C52.1504 79.8413 51.9655 79.3928 51.9655 78.9132C51.9655 78.436 52.1512 77.9875 52.4881 77.6508C52.5636 77.5751 60.2432 69.8957 60.2432 69.8957C60.8268 69.3119 60.8268 68.3659 60.2432 67.7823C59.6594 67.1989 58.7134 67.1989 58.1298 67.7823L49.1852 76.7271C48.4827 77.4294 47.346 77.4758 46.652 76.8297C46.2927 76.4951 46.0903 76.0421 46.0813 75.5535C46.0726 75.0634 46.6053 74.2548 46.6053 74.2548C46.6862 74.1739 54.8185 66.0418 54.8185 66.0418C55.4021 65.458 55.4021 64.512 54.8185 63.9284C54.2347 63.345 53.2887 63.345 52.7051 63.9284L43.3066 73.3291C42.6027 74.0317 41.465 74.0773 40.7696 73.4297C40.411 73.0962 40.2087 72.6437 40.2 72.1553C40.191 71.6654 40.3769 71.2049 40.7232 70.8588L47.2926 64.2893C47.3113 64.2895 47.3302 64.2913 47.3487 64.2913C48.7781 64.2911 50.1527 63.7248 51.1699 62.7052L58.2183 55.6483C63.6593 58.1853 70.1769 57.4212 74.8793 53.6799C75.5251 53.1661 75.6321 52.2258 75.1182 51.5801C74.6041 50.9341 73.6643 50.8277 73.0183 51.3412C69.1549 54.4152 63.7824 55.0145 59.3319 52.8688L58.559 52.4962C57.9865 52.2203 57.3019 52.3364 56.8528 52.7863L49.0547 60.594C48.5578 61.0923 47.8698 61.3476 47.168 61.2958C46.4663 61.2436 45.8237 60.8883 45.4053 60.3211C44.7037 59.3696 44.8307 57.9962 45.7006 57.1263L57.3083 45.5186C59.6618 43.1649 62.791 41.869 66.1194 41.869C69.4476 41.869 72.5768 43.1651 74.9303 45.5186L78.0013 48.5896C78.5851 49.173 79.5311 49.173 80.1147 48.5896C80.6983 48.0058 80.6983 47.0598 80.1147 46.4762L77.0437 43.4052C76.2463 42.608 75.3752 41.9122 74.4489 41.3169L79.3412 36.4247C79.925 35.841 79.925 34.8949 79.3414 34.3115C78.7579 33.7277 77.8116 33.7279 77.2282 34.3113L71.6421 39.8972C69.9019 39.2321 68.0384 38.8805 66.1196 38.8805C61.9928 38.8805 58.1131 40.4874 55.1951 43.4054L43.5873 55.0131C41.6812 56.9195 41.4285 59.9642 43.0002 62.0954C43.322 62.5315 43.7039 62.9101 44.1293 63.2259L38.61 68.7456C37.6845 69.6709 37.1881 70.9009 37.2116 72.2097C37.2354 73.517 37.7761 74.7276 38.7337 75.6179C39.983 76.7815 41.6901 77.1423 43.2423 76.7153C43.4658 77.59 43.9354 78.3838 44.6157 79.0174C45.8428 80.1601 47.5679 80.5134 49.123 80.0953C49.3314 80.9214 49.7588 81.6772 50.3753 82.2918C52.0267 83.9428 54.5962 84.1297 56.4557 82.8523C56.7136 83.4909 57.111 84.0707 57.6323 84.5563C58.0433 84.9392 58.5114 85.2307 59.0089 85.4389L54.0492 90.3988C52.3646 92.0838 49.6229 92.0838 47.9383 90.3988L32.2954 74.7559C31.7116 74.1725 30.7656 74.1725 30.182 74.7559C29.5984 75.3397 29.5984 76.2857 30.182 76.8693L45.8249 92.5122C47.2499 93.937 49.122 94.6497 50.9938 94.6497C52.8655 94.6497 54.7376 93.9372 56.1626 92.5122L93.854 54.8206C99.1074 49.5671 102.001 42.5823 102.001 35.1528C102.001 27.7232 99.1068 20.7376 93.8532 15.4843Z" fill="#009C88"/>
</g>
<defs>
<clipPath id="clip0">
<rect width="102" height="102" fill="white"/>
</clipPath>
</defs>
</svg>
