<svg width="93" height="95" viewBox="0 0 93 95" fill="none" xmlns="http://www.w3.org/2000/svg">
<path d="M88.9849 55.6444H87.5633V42.8388C87.5633 40.8115 86.5543 39.0166 85.0133 37.9259V36.1823C85.0133 33.6531 82.9558 31.5956 80.4266 31.5956H79.3651L83.4265 25.6359C84.7879 23.6383 84.2702 20.9053 82.2726 19.5438L54.7131 0.762736C53.7455 0.103117 52.5792 -0.140321 51.428 0.078068C50.2774 0.296086 49.2805 0.949025 48.6211 1.91684L24.8338 36.8225H18.2144L19.8114 20.6558C19.8294 20.4736 19.9478 20.3157 20.1129 20.2535C22.1704 19.4777 23.9535 18.029 25.1336 16.1743C25.2266 16.0282 25.4019 15.9447 25.5834 15.9631L35.9657 16.9888C36.7101 17.061 37.3723 16.5188 37.4458 15.7748C37.5192 15.0307 36.9758 14.3681 36.2317 14.2947L25.8495 13.269C24.6443 13.151 23.4951 13.7063 22.8494 14.7209C21.9817 16.0846 20.6707 17.1497 19.1579 17.7201C18.0192 18.1494 17.2373 19.1721 17.1171 20.3895L15.4939 36.8223H13.7678L16.2934 11.2532C16.3843 10.3329 17.2058 9.65674 18.1272 9.74896L39.1077 11.8215C39.8517 11.8933 40.5143 11.3515 40.5878 10.6075C40.6613 9.86344 40.1178 9.20085 39.3738 9.12738L18.3933 7.05482C15.9878 6.8175 13.8368 8.58113 13.5991 10.9869L11.5633 31.5956H8.09634C5.56733 31.5956 3.50962 33.6531 3.50962 36.1823V37.3717C1.44059 38.3243 0 40.4158 0 42.8388V88.9834C0 92.301 2.69896 95 6.01673 95H81.5467C84.8643 95 87.5633 92.301 87.5633 88.9834V76.1781H88.9849C90.663 76.1781 92.0281 74.813 92.0281 73.1351V58.6875C92.0283 57.0094 90.663 55.6444 88.9849 55.6444ZM80.4266 34.3031C81.463 34.3029 82.306 35.1461 82.306 36.1825V36.8722C82.057 36.8407 81.8041 36.8227 81.5467 36.8227H75.8031L77.52 34.3031H80.4266ZM50.8582 3.44129C51.1105 3.07113 51.4919 2.82138 51.932 2.73788C52.0372 2.71803 52.1427 2.70801 52.2476 2.70801C52.581 2.70801 52.9068 2.80783 53.1885 2.99969L80.7479 21.7807C81.512 22.3016 81.7102 23.3469 81.1895 24.111L72.5271 36.8221H70.4482L74.6952 30.5901C75.384 29.5795 75.4408 28.2933 74.8429 27.2332C74.0484 25.8249 73.7263 24.1667 73.936 22.5638C74.0918 21.3712 73.5671 20.2071 72.5666 19.5254L58.2799 9.78941C57.2792 9.10752 56.0038 9.04499 54.951 9.62631C53.5362 10.4075 51.875 10.7142 50.2737 10.49C49.0862 10.3234 47.8818 10.8596 47.2033 11.8551L30.1888 36.8223H28.11L50.8582 3.44129ZM51.4544 26.4289C45.5594 26.4289 40.7203 31.0254 40.326 36.8223H33.4647L49.4401 13.3797C49.5308 13.2463 49.6815 13.1669 49.836 13.1669C49.8566 13.1669 49.8772 13.1684 49.8978 13.1712C52.0758 13.4759 54.3348 13.0591 56.2593 11.9965C56.4107 11.9126 56.6051 11.9247 56.7551 12.0267L71.042 21.7629C71.1915 21.865 71.2737 22.0416 71.2515 22.2131C70.9663 24.3931 71.4046 26.6482 72.485 28.5634C72.5716 28.7172 72.5611 28.9143 72.4583 29.0655L67.1724 36.8221H62.5833C62.1886 31.0254 57.3497 26.4289 51.4544 26.4289ZM59.8685 36.8225H43.0404C43.4282 32.5198 47.0526 29.1364 51.4544 29.1364C55.8563 29.1362 59.4809 32.5198 59.8685 36.8225ZM6.21693 36.1823C6.21693 35.1459 7.05987 34.3027 8.09634 34.3027H11.2959L11.0471 36.8223H6.21693V36.1823ZM2.70731 42.8388C2.70731 41.0142 4.19187 39.5296 6.01673 39.5296H81.5467C83.3716 39.5296 84.856 41.0142 84.856 42.8388V46.595H2.70731V42.8388ZM84.856 88.9834C84.856 90.8081 83.3716 92.2926 81.5467 92.2926H6.01673C4.19187 92.2926 2.70731 90.8081 2.70731 88.9834V85.2272H10.0071C10.7549 85.2272 11.3607 84.6212 11.3607 83.8736C11.3607 83.1261 10.7547 82.5201 10.0071 82.5201H2.70731V49.3024H84.856V55.6444H71.9853C67.93 55.6444 64.417 58.0082 62.7499 61.4299C62.7443 61.4414 62.738 61.4525 62.7323 61.464C62.7182 61.4932 62.7059 61.5234 62.6922 61.5527C62.4937 61.9745 62.3211 62.4111 62.1806 62.8616C62.1803 62.8629 62.1799 62.864 62.1795 62.8653C61.8799 63.8281 61.7183 64.851 61.7183 65.9112C61.7183 71.5724 66.3239 76.1781 71.9849 76.1781H84.8558V82.5201H18.6747C17.927 82.5201 17.3212 83.1261 17.3212 83.8736C17.3212 84.6212 17.9272 85.2272 18.6747 85.2272H84.856V88.9834ZM89.321 73.1349C89.321 73.3201 89.1703 73.4708 88.9849 73.4708H71.9855C69.1197 73.4708 66.6211 71.8678 65.3396 69.5116C65.2813 69.4045 65.2257 69.2958 65.1724 69.1858C65.0661 68.9655 64.9702 68.7393 64.8854 68.5078C64.5881 67.6977 64.4259 66.823 64.4259 65.9112C64.4259 64.9994 64.5883 64.1248 64.8854 63.3147C64.9703 63.0833 65.0663 62.8571 65.1724 62.6367C65.2257 62.5267 65.2813 62.4179 65.3396 62.3109C66.6211 59.9546 69.1197 58.3517 71.9855 58.3517H88.9849C89.1701 58.3517 89.321 58.5023 89.321 58.6875V73.1349Z" fill="#009C88"/>
<path d="M72.3026 60.419C69.2741 60.419 66.8104 62.8829 66.8104 65.9112C66.8104 68.9395 69.2741 71.4032 72.3026 71.4032C75.3311 71.4032 77.7948 68.9395 77.7948 65.9112C77.7948 62.8829 75.3311 60.419 72.3026 60.419ZM72.3026 68.6959C70.767 68.6959 69.5177 67.4466 69.5177 65.9112C69.5177 64.3758 70.767 63.1263 72.3026 63.1263C73.8382 63.1263 75.0875 64.3756 75.0875 65.9112C75.0875 67.4468 73.8382 68.6959 72.3026 68.6959Z" fill="#4DE6B8"/>
</svg>
