<svg width="611" height="414" viewBox="0 0 611 414" fill="none" xmlns="http://www.w3.org/2000/svg">
<path d="M25.8148 377.997C28.3867 379.003 31.1482 379.255 33.8331 378.728C36.5179 378.202 39.0358 376.916 41.144 374.993C46.5131 369.978 48.1967 361.72 49.566 354.072L53.6173 331.448L45.1357 337.946C39.0357 342.619 32.7988 347.442 28.5756 354.21C24.3525 360.978 22.5101 370.218 25.9022 377.542" fill="#E6E6E6"/>
<path d="M27.1243 406.962C26.0568 398.308 24.9584 389.543 25.709 380.797C26.3742 373.029 28.5042 365.444 32.8406 359.222C35.1424 355.926 37.9432 353.102 41.1171 350.877C41.9445 350.296 42.7063 351.755 41.8824 352.334C36.3905 356.195 32.1426 361.897 29.7512 368.618C27.1102 376.092 26.6861 384.239 27.141 392.178C27.416 396.979 28.0003 401.749 28.5871 406.513C28.6335 406.728 28.6046 406.955 28.5062 407.148C28.4079 407.34 28.2475 407.484 28.0574 407.55C27.8636 407.608 27.6569 407.579 27.4823 407.469C27.3077 407.358 27.1793 407.176 27.1249 406.961L27.1243 406.962Z" fill="#F2F2F2"/>
<path d="M34.8085 393.077C35.9114 394.942 37.4275 396.46 39.2109 397.485C40.9943 398.509 42.9848 399.005 44.9906 398.925C50.1463 398.653 54.4427 394.651 58.31 390.851L69.7512 379.611L62.1794 379.208C56.734 378.918 51.1481 378.646 45.9615 380.516C40.775 382.387 35.9918 386.881 35.0435 392.855" fill="#E6E6E6"/>
<path d="M24.1067 411.936C29.2463 401.818 35.2072 390.574 45.8593 386.979C48.8209 385.983 51.9263 385.627 55.0083 385.928C55.9797 386.022 55.7371 387.687 54.7677 387.595C49.6014 387.117 44.4451 388.635 40.1668 391.892C36.0498 395.01 32.8442 399.345 30.1313 403.941C28.4694 406.757 26.9808 409.692 25.4922 412.624C25.0165 413.56 23.6255 412.884 24.1067 411.936Z" fill="#F2F2F2"/>
<path d="M539.947 12.9655H114.892V237.375H539.947V12.9655Z" fill="#E6E6E6"/>
<path d="M527.793 32.2089H127.046V219.44H527.793V32.2089Z" fill="white"/>
<path d="M539.766 0H114.711V20.0911H539.766V0Z" fill="#009C88"/>
<path d="M128.13 13.0168C129.978 13.0168 131.477 11.3496 131.477 9.29302C131.477 7.23642 129.978 5.56921 128.13 5.56921C126.281 5.56921 124.783 7.23642 124.783 9.29302C124.783 11.3496 126.281 13.0168 128.13 13.0168Z" fill="white"/>
<path d="M140.833 13.0168C142.682 13.0168 144.18 11.3496 144.18 9.29302C144.18 7.23642 142.682 5.56921 140.833 5.56921C138.985 5.56921 137.487 7.23642 137.487 9.29302C137.487 11.3496 138.985 13.0168 140.833 13.0168Z" fill="white"/>
<path d="M153.538 13.0168C155.386 13.0168 156.885 11.3496 156.885 9.29302C156.885 7.23642 155.386 5.56921 153.538 5.56921C151.689 5.56921 150.191 7.23642 150.191 9.29302C150.191 11.3496 151.689 13.0168 153.538 13.0168Z" fill="white"/>
<path d="M221.695 175.633H424.237V137.009C424.207 132.936 423.445 128.911 421.997 125.171C420.549 121.43 418.445 118.048 415.806 115.225L415.751 115.165C412.134 111.127 400.044 100.877 387.535 101.746C380.928 102.204 375.271 105.747 370.722 112.277C356.562 132.611 337.961 125.747 328.134 119.846C319.473 114.644 310.629 112.203 301.844 112.591C289.54 113.127 272.223 118.169 259.594 139.154C254.771 147.163 244.281 158.034 221.695 164.423V175.633Z" fill="#E4E4E4"/>
<path d="M435.697 176.531H222.085C221.908 176.531 221.738 176.453 221.613 176.314C221.487 176.174 221.417 175.985 221.417 175.788V61.8739C221.417 61.6767 221.487 61.4875 221.613 61.348C221.738 61.2085 221.908 61.1301 222.085 61.1301C222.263 61.1301 222.433 61.2085 222.558 61.348C222.683 61.4875 222.754 61.6767 222.754 61.8739V175.044H435.697C435.874 175.044 436.044 175.122 436.17 175.262C436.295 175.401 436.366 175.59 436.366 175.788C436.366 175.985 436.295 176.174 436.17 176.314C436.044 176.453 435.874 176.531 435.697 176.531Z" fill="#3F3D56"/>
<path d="M262.718 132.726H261.407V175.485H262.718V132.726Z" fill="white"/>
<path d="M301.972 112.756H300.661V175.485H301.972V112.756Z" fill="white"/>
<path d="M341.306 125.885H339.995V175.485H341.306V125.885Z" fill="white"/>
<path d="M380.641 101.815H379.33V175.485H380.641V101.815Z" fill="white"/>
<path d="M419.976 118.591H418.665V175.485H419.976V118.591Z" fill="white"/>
<path d="M301.397 118.224C303.612 118.224 305.408 116.226 305.408 113.761C305.408 111.297 303.612 109.299 301.397 109.299C299.182 109.299 297.386 111.297 297.386 113.761C297.386 116.226 299.182 118.224 301.397 118.224Z" fill="#57B793"/>
<path d="M380.067 106.554C382.282 106.554 384.078 104.556 384.078 102.091C384.078 99.6262 382.282 97.6282 380.067 97.6282C377.851 97.6282 376.056 99.6262 376.056 102.091C376.056 104.556 377.851 106.554 380.067 106.554Z" fill="#57B793"/>
<path d="M340.732 130.624C342.947 130.624 344.743 128.626 344.743 126.161C344.743 123.697 342.947 121.698 340.732 121.698C338.517 121.698 336.721 123.697 336.721 126.161C336.721 128.626 338.517 130.624 340.732 130.624Z" fill="#57B793"/>
<path d="M262.062 137.189C264.278 137.189 266.073 135.191 266.073 132.726C266.073 130.261 264.278 128.263 262.062 128.263C259.847 128.263 258.051 130.261 258.051 132.726C258.051 135.191 259.847 137.189 262.062 137.189Z" fill="#57B793"/>
<path d="M419.401 122.601C421.617 122.601 423.412 120.602 423.412 118.138C423.412 115.673 421.617 113.675 419.401 113.675C417.186 113.675 415.39 115.673 415.39 118.138C415.39 120.602 417.186 122.601 419.401 122.601Z" fill="#57B793"/>
<path d="M89.7573 405.162H97.7947L101.618 370.67L89.756 370.67L89.7573 405.162Z" fill="#FFB6B6"/>
<path d="M87.707 402.242L103.535 402.242H103.536C106.211 402.242 108.777 403.424 110.668 405.529C112.56 407.634 113.623 410.488 113.623 413.465V413.829L87.7075 413.83L87.707 402.242Z" fill="#2F2E41"/>
<path d="M127.781 405.162H135.818L139.642 370.67L127.78 370.67L127.781 405.162Z" fill="#FFB6B6"/>
<path d="M125.731 402.242L141.559 402.242H141.56C144.235 402.242 146.8 403.424 148.692 405.529C150.584 407.634 151.646 410.488 151.647 413.465V413.829L125.731 413.83L125.731 402.242Z" fill="#2F2E41"/>
<path d="M142.781 247.476C143.46 246.615 143.961 245.599 144.249 244.499C144.538 243.399 144.606 242.243 144.449 241.111C144.292 239.978 143.913 238.898 143.341 237.946C142.768 236.994 142.014 236.194 141.133 235.601L128.054 165.732L113.804 171.978L131.142 238.693C130.345 240.406 130.14 242.384 130.566 244.254C130.993 246.123 132.02 247.754 133.455 248.836C134.89 249.919 136.631 250.378 138.35 250.127C140.069 249.877 141.645 248.933 142.781 247.476V247.476Z" fill="#FFB6B6"/>
<path d="M81.1374 234.021L75.2132 240.711C75.2132 240.711 68.8617 266.608 81.0157 298.545L89.1449 391.143L103.771 392.369L108.137 284.639L128.283 320.398L124.764 391.986L140.931 391.572L148.238 312.248L128.283 229.472L81.1374 234.021Z" fill="#7E94C1"/>
<path d="M106.697 150.398L112.529 142.263C112.529 142.263 122.755 134.483 125.991 151.155C129.227 167.826 142.5 230 142.5 230L125.991 233.5L106.697 150.398Z" fill="#54AF8D"/>
<path d="M78 198L64 261C78.6667 267.667 116.8 277.8 152 265L126.004 195.566L120.129 151.251C119.755 148.388 118.443 145.779 116.446 143.926C114.449 142.074 111.907 141.107 109.309 141.212L80.6025 142.306L78 198Z" fill="#57B793"/>
<path d="M51.4258 248.205C50.7465 247.344 50.2451 246.328 49.9569 245.228C49.6686 244.129 49.6007 242.972 49.7577 241.84C49.9147 240.708 50.293 239.628 50.8657 238.676C51.4385 237.724 52.1919 236.923 53.0729 236.33L66.1526 166.461L80.4022 172.708L63.0646 239.423C63.8617 241.135 64.0665 243.114 63.6401 244.983C63.2138 246.853 62.1859 248.483 60.7513 249.566C59.3166 250.648 57.5749 251.108 55.8562 250.857C54.1374 250.606 52.5611 249.663 51.4258 248.205V248.205Z" fill="#FFB6B6"/>
<path d="M87.5095 151.128L81.6769 142.993C81.6769 142.993 71.4519 135.213 68.2158 151.884C64.9797 168.555 53 231.5 53 231.5L65.5 235.5L87.5095 151.128Z" fill="#57B793"/>
<path d="M77.5487 94.2926C73.43 98.8751 69.0001 105.09 69.0001 111.571C69.0001 111.571 68.5487 151.5 77.5486 167.5C90.7673 191 106.933 181.006 116 194.5C116 194.5 121.5 176.5 123.5 161.5C125.5 146.5 116 111.571 116 111.571C116 105.09 112.726 98.8751 108.608 94.2926C104.489 89.7101 98.9028 87.1357 93.0781 87.1357C87.2535 87.1357 81.6674 89.7101 77.5487 94.2926Z" fill="#3F3737"/>
<path d="M97.2762 131.99C106.169 131.99 113.378 123.969 113.378 114.075C113.378 104.181 106.169 96.1599 97.2762 96.1599C88.3834 96.1599 81.1744 104.181 81.1744 114.075C81.1744 123.969 88.3834 131.99 97.2762 131.99Z" fill="#FFB6B6"/>
<path d="M566.632 405.162H558.595L554.771 370.67L566.634 370.67L566.632 405.162Z" fill="#9E616A"/>
<path d="M568.682 413.83L542.767 413.829V413.465C542.767 410.488 543.83 407.634 545.721 405.529C547.613 403.424 550.179 402.242 552.854 402.242H552.855L568.683 402.242L568.682 413.83Z" fill="#2F2E41"/>
<path d="M537.787 405.162H529.75L525.926 370.67L537.789 370.67L537.787 405.162Z" fill="#9E616A"/>
<path d="M539.837 413.83L513.921 413.829V413.465C513.921 410.488 514.984 407.634 516.876 405.529C518.768 403.424 521.333 402.242 524.008 402.242H524.009L539.837 402.242L539.837 413.83Z" fill="#2F2E41"/>
<path d="M444.18 163.469C444.822 164.452 445.65 165.267 446.606 165.855C447.562 166.443 448.622 166.791 449.712 166.874C450.801 166.957 451.894 166.773 452.913 166.336C453.932 165.898 454.852 165.217 455.609 164.341L471.513 171.251L477.644 161.522L455.062 152.115C453.655 150.798 451.862 150.101 450.024 150.156C448.186 150.211 446.429 151.015 445.088 152.414C443.747 153.814 442.913 155.712 442.746 157.75C442.579 159.787 443.089 161.822 444.18 163.469Z" fill="#9E616A"/>
<path d="M537.686 222.414L516.747 230.013L523.742 395.002L539.902 395.447L548.172 279.094L550.05 394.987L570.032 396.213L577.398 222.414H537.686Z" fill="#7E94C1"/>
<path d="M523.557 125.156L577.299 112.164L583.275 163.649L578.299 188.249L580.292 225.634C580.292 225.634 537.798 249.166 516.747 230.013C516.747 230.013 533.666 180.567 523.859 157.42L523.557 125.156Z" fill="#57B793"/>
<path d="M532.865 132.438L523.558 125.156C523.558 125.156 523.008 124.309 515.252 134.397C507.496 144.485 491.762 160.532 491.762 160.532L465.539 149.591L460.761 169.23L491.238 185.032L534.386 152.971L532.865 132.438Z" fill="#57B793"/>
<path d="M580.301 244.933C581.289 244.414 582.162 243.66 582.86 242.725C583.557 241.79 584.062 240.696 584.338 239.52C584.615 238.345 584.656 237.116 584.459 235.92C584.263 234.725 583.833 233.592 583.2 232.602L592.265 216.504L584.816 207.99L572.302 230.922C570.877 232.215 569.928 234.045 569.634 236.065C569.34 238.084 569.722 240.154 570.708 241.881C571.695 243.608 573.216 244.873 574.984 245.435C576.752 245.998 578.644 245.819 580.301 244.933V244.933Z" fill="#9E616A"/>
<path d="M568.917 122.307L577.299 112.164C577.299 112.164 586.638 108.546 594.269 127.245C601.899 145.944 610.422 183.873 610.422 183.873L590.496 226.577L575.021 218.884L590.496 183.571L574.12 157.42L568.917 122.307Z" fill="#57B793"/>
<path d="M554.703 107.941C563.157 102.8 566.264 91.0069 561.642 81.6013C557.021 72.1957 546.422 68.739 537.968 73.8806C529.515 79.0221 526.408 90.8149 531.029 100.221C535.65 109.626 546.249 113.083 554.703 107.941Z" fill="#9E616A"/>
<path d="M562.742 75.3945L563.588 73.5007L559.333 71.1484C559.333 71.1484 554.638 62.6501 546.144 65.0383C537.649 67.4265 533.828 68.8558 533.828 68.8558L529.583 71.2321L531.713 73.5904L527.892 75.0197L530.445 76.4311L527.474 78.3309L529.073 88.0698C529.073 88.0698 531.729 80.6832 536.836 83.506C541.942 86.3287 551.282 82.0468 551.282 82.0468L559.397 99.5197C559.397 99.5197 561.071 93.3946 564.056 95.0278C564.056 95.0279 571.681 81.5166 562.742 75.3945Z" fill="#2F2E41"/>
<path d="M196.674 414H0.655579C0.481709 414 0.314959 413.923 0.192014 413.786C0.0690693 413.65 0 413.464 0 413.271C0 413.077 0.0690693 412.892 0.192014 412.755C0.314959 412.618 0.481709 412.541 0.655579 412.541H196.674C196.848 412.541 197.014 412.618 197.137 412.755C197.26 412.892 197.329 413.077 197.329 413.271C197.329 413.464 197.26 413.65 197.137 413.786C197.014 413.923 196.848 414 196.674 414Z" fill="#3F3D56"/>
<path d="M610.344 414H460.217C460.043 414 459.876 413.923 459.753 413.786C459.63 413.65 459.561 413.464 459.561 413.271C459.561 413.077 459.63 412.892 459.753 412.755C459.876 412.618 460.043 412.541 460.217 412.541H610.344C610.518 412.541 610.685 412.618 610.808 412.755C610.931 412.892 611 413.077 611 413.271C611 413.464 610.931 413.65 610.808 413.786C610.685 413.923 610.518 414 610.344 414Z" fill="#3F3D56"/>
</svg>
