<svg width="96" height="100" viewBox="0 0 96 100" fill="none" xmlns="http://www.w3.org/2000/svg">
<path d="M80.0687 25.0343C80.1823 24.3515 80.2395 23.6588 80.2395 22.963C80.2395 15.995 74.5748 10.3264 67.6118 10.3264C66.0275 10.3264 64.4493 10.6285 62.9802 11.2076C58.5704 4.26102 50.8861 0 42.6117 0C37.8131 0 33.1761 1.40762 29.204 4.07104C28.5323 4.52118 28.3524 5.43137 28.8022 6.10352C29.252 6.77567 30.1616 6.95572 30.8333 6.50558C34.322 4.16641 38.3948 2.92969 42.6117 2.92969C50.2792 2.92969 57.3704 7.09534 61.1184 13.8008C61.5072 14.4958 62.3786 14.753 63.0816 14.3806C64.489 13.6345 66.013 13.2561 67.6118 13.2561C72.9608 13.2561 77.3119 17.6109 77.3119 22.963C77.3119 23.9929 77.1495 25.0107 76.8285 25.9895C76.519 26.9341 77.2616 27.9327 78.2527 27.9106C78.3533 27.9083 78.4784 27.9015 78.5882 27.9015C86.5751 27.9015 93.0724 34.4032 93.0724 42.3958C93.0724 50.3883 86.5751 56.8901 78.5882 56.8901H67.8702V39.2288C67.8702 28.2646 58.9569 19.3451 48.0004 19.3451C37.0438 19.3451 28.1298 28.2646 28.1298 39.2288V56.8901H17.4118C9.42488 56.8901 2.92764 50.3883 2.92764 42.3958C2.92764 34.4032 9.42488 27.9015 17.4118 27.9015C18.2139 27.9015 19.035 27.9716 19.8523 28.1105C20.7939 28.27 21.6577 27.4521 21.5525 26.5045C21.4648 25.7141 21.4198 24.9168 21.4198 24.1356C21.4198 18.9735 23.2969 13.9984 26.7041 10.1265C27.2385 9.51996 27.1798 8.59451 26.5729 8.05969C25.9661 7.52487 25.0413 7.58362 24.5068 8.19016C20.6284 12.5969 18.4922 18.2602 18.4922 24.1356C18.4922 24.4247 18.4975 24.7154 18.5082 25.0076C18.1407 24.9832 17.7748 24.9718 17.4118 24.9718C7.81086 24.9718 0 32.7881 0 42.3958C0 52.0035 7.81086 59.8198 17.4118 59.8198H28.1298V63.2744H27.3231C25.0679 63.2744 23.2328 65.11 23.2328 67.3668V74.5399H18.9367C16.6815 74.5399 14.8464 76.3756 14.8464 78.6324V85.8047H11.7068C9.45156 85.8047 7.61721 87.6411 7.61721 89.8979V98.5352C7.61721 99.3439 8.27288 100 9.08103 100H86.9197C87.7279 100 88.3836 99.3439 88.3836 98.5352V89.8979C88.3836 87.6411 86.5484 85.8047 84.2932 85.8047H81.1536V78.6324C81.1536 76.3756 79.3193 74.5392 77.0641 74.5392H72.7672V67.3668C72.7672 65.11 70.9328 63.2744 68.6769 63.2744H67.8702V59.8198H78.5882C88.1891 59.8198 96 52.0035 96 42.3958C96 33.287 88.9798 25.7881 80.0687 25.0343ZM78.226 78.6324V85.8047H70.7407C69.9325 85.8047 69.2769 86.4609 69.2769 87.2696C69.2769 88.0791 69.9325 88.7344 70.7407 88.7344H84.2932C84.9337 88.7344 85.4551 89.2563 85.4551 89.8979V97.0703H10.5449V89.8979C10.5449 89.2563 11.0663 88.7344 11.7068 88.7344H64.8854C65.6943 88.7344 66.3492 88.0791 66.3492 87.2696C66.3492 86.4609 65.6943 85.8047 64.8854 85.8047H17.774V78.6324C17.774 77.9907 18.2955 77.4689 18.9367 77.4689H77.0633C77.7045 77.4689 78.226 77.9907 78.226 78.6324ZM69.8395 67.3668V74.5392H26.1605V67.3668C26.1605 66.7252 26.682 66.2041 27.3231 66.2041H68.6769C69.318 66.2041 69.8395 66.7252 69.8395 67.3668ZM57.4375 63.2744H38.5625V39.2288C38.5625 34.0218 42.7962 29.7844 48.0004 29.7844C53.2038 29.7844 57.4375 34.021 57.4375 39.2288V63.2744ZM60.3651 63.2744V39.2288C60.3651 32.4059 54.8186 26.8547 48.0004 26.8547C41.1814 26.8547 35.6349 32.4059 35.6349 39.2288V63.2744H31.0574V39.2288C31.0574 29.8805 38.6578 22.2748 48.0004 22.2748C57.3429 22.2748 64.9426 29.8805 64.9426 39.2288V63.2744H60.3651Z" fill="#009C88"/>
</svg>
